<svg xmlns="http://www.w3.org/2000/svg" width="83.714" height="82.458" viewBox="0 0 83.714 82.458"><defs><style>.a{fill:#9b9b9b;fill-rule:evenodd;}</style></defs><path class="a" d="M136.973,83.115h45.906l-.007,63.913a18.439,18.439,0,0,1-18.488,18.533l-27.411.012v-9.117h6.013l10.009-34.816,2.431,10.811,13.078.021-6.033-40.2h-4.7c-10.116,0-12.57,9.171-13.064,10.537l-7.733,25.934V83.115Zm-2.341,45.941-11.053-36.64c-7.923,0-15.368,4.409-16.446,12.038l-7.968,51.9c7.539,0,15.018-4.235,16.119-11.523l3.188-23.118,9.992,34.741h6.168v-27.4Zm20.51,17.991a9.242,9.242,0,0,0,9.212,9.217h0a9.242,9.242,0,0,0,9.212-9.217h0a9.241,9.241,0,0,0-9.212-9.217h0a9.241,9.241,0,0,0-9.212,9.217Z" transform="translate(-99.165 -83.115)"/></svg>