<svg xmlns="http://www.w3.org/2000/svg" width="101.543" height="107.334" viewBox="0 0 101.543 107.334"><defs><style>.a,.b{fill:#9b9b9b;}.b{fill-rule:evenodd;}</style></defs><g transform="translate(1.522 1.5)"><path class="a" d="M208.656,141.057c8.675,0,16.9,1.266,24.853,2.49,7.842,1.207,15.951,2.455,24.4,2.455h1.522l-.022,1.522c-.051,3.475-.054,7.029-.057,10.465-.007,9.339-.015,19-1,28.11a94.723,94.723,0,0,1-2.343,13.408,63.651,63.651,0,0,1-4.587,12.588,49.006,49.006,0,0,1-6.7,10.149,64.1,64.1,0,0,1-8.62,8.307c-6.245,5.057-13.482,9.413-21.144,14.024-1.8,1.083-3.659,2.2-5.519,3.338l-.782.478-.782-.478c-1.859-1.137-3.719-2.256-5.518-3.339-7.66-4.611-14.9-8.967-21.139-14.024a64.142,64.142,0,0,1-8.62-8.307,49.049,49.049,0,0,1-6.706-10.149,63.669,63.669,0,0,1-4.585-12.587A94.759,94.759,0,0,1,158.96,186.1c-.981-9.114-.989-18.77-1-28.108,0-3.437-.005-6.991-.057-10.467L157.885,146h1.522c8.445,0,16.552-1.248,24.393-2.455C191.754,142.323,199.978,141.057,208.656,141.057Zm47.73,7.932a170.4,170.4,0,0,1-23.334-2.477c-7.842-1.207-15.951-2.455-24.4-2.455s-16.558,1.248-24.4,2.455a170.355,170.355,0,0,1-23.33,2.477c.033,3.009.035,6.047.038,9,.014,18.4.029,37.427,7.612,52.776,7.019,14.2,20.135,22.1,35.323,31.239,1.551.934,3.148,1.895,4.753,2.872,1.605-.977,3.2-1.938,4.754-2.872,15.191-9.143,28.311-17.039,35.326-31.239,7.588-15.35,7.6-34.378,7.617-52.779C256.351,155.035,256.354,152,256.387,148.989Z" transform="translate(-159.407 -142.557)"/><path class="b" d="M202.374,144.312c-14.358,0-26.943,4.146-41.306,4.146.277,18.757-1.123,38.054,6.567,53.621,6.768,13.7,20.046,20.541,34.738,29.522Z" transform="translate(-153.129 -135.919)"/><path class="a" d="M169.709,182.839v-2a115.357,115.357,0,0,0,16.6-1.22V154.4a112.312,112.312,0,0,0-16.512-1.218l0-2h.089a114.631,114.631,0,0,1,17.578,1.37l.846.132V181.34l-.848.13A117.544,117.544,0,0,1,169.709,182.839Z" transform="translate(-120.469 -106.147)"/><path d="M183.319,182.839a111.945,111.945,0,0,1-17.367-1.37l-.844-.134v-28.65l.846-.132a114.236,114.236,0,0,1,17.451-1.37l0,2a112.125,112.125,0,0,0-16.3,1.218v25.223a110.019,110.019,0,0,0,16.212,1.216Z" transform="translate(-134.08 -106.147)"/><path d="M165.9,171.786V160.214a13.7,13.7,0,0,1,13.661-13.669h.837v2h-.837A11.678,11.678,0,0,0,167.9,160.214v9.3a114.347,114.347,0,0,1,12.529-.787l.015,2a112.407,112.407,0,0,0-13.416.91Z" transform="translate(-131.082 -123.69)"/><path class="a" d="M184.457,171.589l-1.114-.128a111.787,111.787,0,0,0-13.572-.73l-.015-2a113.86,113.86,0,0,1,12.7.62v-9.137A11.678,11.678,0,0,0,170.8,148.545h-1.071v-2H170.8a13.7,13.7,0,0,1,13.661,13.669Z" transform="translate(-120.409 -123.69)"/><path d="M166.915,167.034V156.089a8.444,8.444,0,0,1,8.432-8.437h1.219v2h-1.219a6.442,6.442,0,0,0-6.432,6.437v8.774c2.542-.191,5.108-.3,7.643-.319l.017,2c-2.846.023-5.731.157-8.575.4Z" transform="translate(-127.25 -119.503)"/><path class="a" d="M179.61,166.906l-1.073-.078c-2.86-.208-5.823-.3-8.806-.284l-.013-2c2.665-.017,5.314.056,7.892.217v-8.672a6.442,6.442,0,0,0-6.432-6.437h-1.453v-2h1.453a8.444,8.444,0,0,1,8.432,8.437Z" transform="translate(-120.409 -119.503)"/><path class="a" d="M0,8.056a3,3,0,0,1-3-3V0A3,3,0,0,1,0-3,3,3,0,0,1,3,0V5.055A3,3,0,0,1,0,8.056Z" transform="translate(56.02 60.459)"/><path d="M0,8.056a3,3,0,0,1-3-3V0A3,3,0,0,1,0-3,3,3,0,0,1,3,0V5.055A3,3,0,0,1,0,8.056Z" transform="translate(42.471 56.926)"/></g></svg>