<svg xmlns="http://www.w3.org/2000/svg" width="600" height="809" viewBox="0 0 600 809"><defs><style>.a{fill:#248800;}.b{fill:rgba(112,112,112,0.15);}.c{fill:#50bc2d;}</style></defs><g transform="translate(-75 -2082)"><rect class="a" width="600" height="809" rx="18" transform="translate(75 2082)"/><path class="b" d="M18,3A15,15,0,0,0,3,18V791a15,15,0,0,0,15,15H582a15,15,0,0,0,15-15V18A15,15,0,0,0,582,3H18m0-3H582a18,18,0,0,1,18,18V791a18,18,0,0,1-18,18H18A18,18,0,0,1,0,791V18A18,18,0,0,1,18,0Z" transform="translate(75 2082)"/><rect class="c" width="594" height="67" transform="translate(78 2199)"/><rect class="c" width="594" height="67" transform="translate(78 2325)"/><rect class="c" width="594" height="67" transform="translate(78 2451)"/><rect class="c" width="594" height="67" transform="translate(78 2577)"/><rect class="c" width="594" height="67" transform="translate(78 2703)"/></g></svg>