<svg xmlns="http://www.w3.org/2000/svg" width="95.778" height="83.702" viewBox="0 0 95.778 83.702"><defs><style>.a,.b{fill:#9b9b9b;}.b{fill-rule:evenodd;}.c{font-size:23px;font-family:TechnaSans-Regular, Techna Sans;}</style></defs><g transform="translate(0 2)"><path class="a" d="M257.561,211.81h-4v-8.055a27.651,27.651,0,0,0-27.611-27.629H206.333a27.651,27.651,0,0,0-27.611,27.629v8.055h-4v-8.055a31.265,31.265,0,0,1,2.5-12.286,31.908,31.908,0,0,1,16.836-16.845,31.218,31.218,0,0,1,12.28-2.5H225.95a31.218,31.218,0,0,1,12.28,2.5,31.908,31.908,0,0,1,16.836,16.845,31.265,31.265,0,0,1,2.5,12.286Z" transform="translate(-168.23 -174.126)"/><path class="b" d="M183.736,186.841h-5.793a5.047,5.047,0,0,0-5.031,5.034v13.841a4.847,4.847,0,0,0,4.833,4.836h5.992Z" transform="translate(-172.911 -158.492)"/><path class="b" d="M211.037,210.555h5.793a5.047,5.047,0,0,0,5.031-5.034V191.679a4.849,4.849,0,0,0-4.833-4.838h-5.992Z" transform="translate(-126.083 -158.492)"/><path class="a" d="M198.731,226.535v-2a28.085,28.085,0,0,0,28.045-28.062h2a29.709,29.709,0,0,1-2.371,11.675,30.338,30.338,0,0,1-16,16.014A29.663,29.663,0,0,1,198.731,226.535Z" transform="translate(-141.198 -146.649)"/><rect class="a" width="11.741" height="5.808" rx="1.125" transform="translate(49.271 75.894)"/><path class="b" d="M221.061,178.364H203.135A21.5,21.5,0,0,0,181.708,199.8v17.937a21.256,21.256,0,0,0,2.6,10.2l-4.292,8.934,11.36-1.249a21.245,21.245,0,0,0,11.761,3.554h17.926a21.5,21.5,0,0,0,21.424-21.44V199.8A21.5,21.5,0,0,0,221.061,178.364Z" transform="translate(-164.186 -168.915)"/><text class="c" transform="translate(23.127 46.376)"><tspan x="0" y="0">24/7</tspan></text></g></svg>