<svg xmlns="http://www.w3.org/2000/svg" xmlns:xlink="http://www.w3.org/1999/xlink" width="189.159" height="164.273" viewBox="0 0 189.159 164.273">
<defs>
<style>.a1{fill:url(#a1);}.b1{fill:url(#b1);}.c1{fill:url(#c1);}.d1{fill:url(#d1);}.e1{fill:#1a1818;}</style>
<linearGradient id="a1" x1="1.022" y1="0.982" x2="-0.058" y2="-0.068" gradientUnits="objectBoundingBox">
<stop offset="0.003" stop-color="#005a24"/>
<stop offset="0.994" stop-color="#009b3b"/>
</linearGradient>
<linearGradient id="b1" x1="1.047" y1="1.181" x2="0.016" y2="-0.119" gradientUnits="objectBoundingBox">
<stop offset="0.094" stop-color="#0c7986"/><stop offset="1" stop-color="#008367"/>
</linearGradient>
<linearGradient id="c1" x1="0" y1="0.5" x2="1" y2="0.5" xlink:href="#a"/>
<linearGradient id="d1" x1="0.137" y1="0.258" x2="0.785" y2="0.906" gradientUnits="objectBoundingBox">
<stop offset="0.094" stop-color="#008388"/>
<stop offset="0.929" stop-color="#009b88"/>
</linearGradient>
</defs>
<path class="a1" d="M192.226,769.755,160.4,805.684,128.5,769.621l10.137.029a42.118,42.118,0,0,0-41.426-39.442l.643-41.745a83.866,83.866,0,0,1,82.554,81.264Z" transform="translate(-3.067 -688.464)"/>
<path class="b1" d="M62.095,741.942,93.92,706.015l31.905,36.061-10.135-.027a42.113,42.113,0,0,0,41.423,39.439l-.643,41.745a83.866,83.866,0,0,1-82.551-81.264Z" transform="translate(-62.095 -658.959)"/>
<path class="c1" d="M160.01,798.93A71.829,71.829,0,0,0,97.7,692.217L97.208,723.9a42.118,42.118,0,0,1,41.426,39.442l-10.137-.029Z" transform="translate(-3.067 -682.155)"/>
<path class="d1" d="M101.707,742.049l10.135.027L79.936,706.015l-1.3,1.469a71.837,71.837,0,0,0,63.62,105.206c.134,0,.263-.008.4-.011l.48-31.192A42.113,42.113,0,0,1,101.707,742.049Z" transform="translate(-48.112 -658.959)"/>
<path class="e1" d="M143.07,731.83v-9.657h-6.933v-12.5h-10.92v12.5H113.656c-1.837-2.4-3.644-4.673-5.413-6.8q-2.819-3.382-5.142-5.705H94.154v12.5h-7.36v9.657h7.36v7.263h-7.36v9.655h7.36v9.735H105v-9.735h16.087c2.019,3.225,3.979,6.464,5.821,9.735h9.228v-9.735h6.933v-9.655h-6.933V731.83ZM105,739.093V731.83h4.287q2.767,3.527,5.381,7.263Zm20.215-.617c-1.424-2.134-2.949-4.362-4.539-6.646h4.539Z" transform="translate(-20.574 -652.818)"/>
</svg>