<svg xmlns="http://www.w3.org/2000/svg" xmlns:xlink="http://www.w3.org/1999/xlink" width="110.864" height="110.864" viewBox="0 0 110.864 110.864"><defs><style>.a{fill:#fff;}.b{fill:url(#a);}.c{fill:#dfe0df;}.c,.d{fill-rule:evenodd;}.d{fill:#d5d609;}</style><radialGradient id="a" cx="0.56" cy="0.509" r="0.563" gradientTransform="matrix(0.926, 0.378, -0.366, 0.896, 0.219, -0.161)" gradientUnits="objectBoundingBox"><stop offset="0" stop-color="#1f3a19"/><stop offset="1" stop-color="#09150e"/></radialGradient></defs><g transform="translate(-483.714 -46.597)"><circle class="a" cx="42.52" cy="42.52" r="42.52" transform="translate(483.714 78.722) rotate(-22.196)"/><circle class="b" cx="42.52" cy="42.52" r="42.52" transform="translate(483.714 78.722) rotate(-22.196)"/><path class="c" d="M540.059,143.939a60.684,60.684,0,0,0,13.371-2.26c9-5.009,21.089-17.767,26.108-34.862a45.024,45.024,0,0,0-.386-8.843,44.991,44.991,0,0,1-4.672,2.641c.3,4.773.079,7.6-1.463,11.78-4.289,8.8-13.572,13.941-21.991,10.637-14.034-6.775-14.51-30.245,2.52-37.07,5.459-1.922,8.611-.085,12.061.951a71.584,71.584,0,0,0,.182-10.514c-4.249-2.765-12.14-4.257-16.923-3.723a31.559,31.559,0,0,0-18.2,10.633c-15.674,23.832-1.263,50.637,23.2,51.788,1.322-.178,1-.014-.64,1.5A58.314,58.314,0,0,1,540.059,143.939Z"/><path class="d" d="M560.014,93.982c-15.138,2.534-11.133,24.864,2.21,21.943a10.951,10.951,0,0,0,5.583-4.366C572.3,103.389,566.951,92.968,560.014,93.982Z"/><path class="d" d="M567.5,77.655c-1.9-.122,2.691,3.4,3.124,3.838a30.759,30.759,0,0,1,3.5,4.452,35.345,35.345,0,0,1,3.48,7.645c.238.836.589,2.577.878,2.292.489-.485-2.826-8.818-3.635-10.1a39.775,39.775,0,0,0-3.243-4.468C571.055,80.709,568.077,77.709,567.5,77.655Z"/><path class="d" d="M577.041,97.074a15.052,15.052,0,0,0-1.218-4.724,30.835,30.835,0,0,0-4.867-7.865c-4.643-4.652-3.757-2.063-3.409-1.514a4.1,4.1,0,0,0,.945.862,21.6,21.6,0,0,1,1.752,1.648,28.168,28.168,0,0,1,5.813,10.288C576.4,97.007,576.463,97.491,577.041,97.074Z"/><path class="d" d="M574.492,99.266c.576-3.182-6.241-12.912-7.7-12.232-.445.206-.5,1.035.17,1.764,1.119,1.27,4.064,2.489,6.485,9.477C573.752,99.359,573.864,99.49,574.492,99.266Z"/></g></svg>