<svg xmlns="http://www.w3.org/2000/svg" xmlns:xlink="http://www.w3.org/1999/xlink" width="97.414" height="97.414" viewBox="0 0 97.414 97.414"><defs><style>.a{fill:#fff;}.b{fill:url(#a);}.c{fill:#e50019;}.c,.d{fill-rule:evenodd;}.d{fill:url(#b);}</style><radialGradient id="a" cx="0.703" cy="0.342" r="0.732" gradientTransform="matrix(0.443, 0.897, -0.741, 0.366, 0.413, -0.162)" gradientUnits="objectBoundingBox"><stop offset="0" stop-color="#fff"/><stop offset="0.18" stop-color="#f5f6f7"/><stop offset="0.62" stop-color="#d5d5d6"/><stop offset="1" stop-color="#bab8b8"/></radialGradient><radialGradient id="b" cx="0.416" cy="0.523" r="1.077" gradientTransform="matrix(-0.506, -0.809, 0.67, -0.566, 0.276, 1.156)" xlink:href="#a"/></defs><g transform="translate(-641.854 -144.679)"><circle class="a" cx="42.52" cy="42.52" r="42.52" transform="translate(641.854 228.649) rotate(-80.904)"/><circle class="b" cx="42.52" cy="42.52" r="42.52" transform="translate(641.854 228.649) rotate(-80.904)"/><path class="c" d="M655.725,180.369c-.012,1.638-.012,1.638.016,3.4-.875,1.5-1.869,1.855-1.918.178a4.176,4.176,0,0,1,1.9-3.573Zm-2.32-.613c.824-1.245,3-4.526,2.408-1.332a11.294,11.294,0,0,0-2.716,3.389,9.271,9.271,0,0,0-.716,4.483c.482,2.445,2.616,1.657,4.534-1.487,1.492-2.207,1.01-2.7.934-5.316.014-1.525.3-3.8-.1-4.53-.7-1.371-3.1,1.313-4.543,3.865C653.309,179.253,653.309,179.253,653.405,179.756Z"/><path class="c" d="M685.757,164.212a1.82,1.82,0,0,1,1.492-2.494c1.575-.345,2.212.427,2.792,1.455-2.108.489-2.108.489-4.284,1.039Zm9.538,2.677c-.675.317-7.5,5.849-8.967-.916,4.341-1.077,4.341-1.077,8.6-1.929-1.35-2.732-3.324-4.527-7.064-4.2-8.7,1.454-7.055,10.5-1.136,11.773,3.515.881,8.739-.825,10.3-3.145C696.171,167.67,696.171,167.67,695.295,166.889Z"/><path class="c" d="M681.753,171.848c-2.132-.2-2.6,1.621-3.609-2.359-.406-1.65-.75-3.208-1.127-4.637,1.277-.466,1.277-.466,2.526-.9-.284-.852-.284-.852-.549-1.656-1.17.382-1.17.382-2.339.784-.256-1.137-.256-1.137-.454-2.182-1.714.858-1.714.858-3.4,1.761-.04,2.213.733,5.356,1.284,8.368.846,4.139,2.761,5.365,8.277,2.858C682.045,172.855,682.045,172.855,681.753,171.848Z"/><path class="c" d="M693.388,157.12c.617,1.522,2.925,4.8,4.221,7.19,1.815,3.764,3.791,5.368,8.566,4.1-1.542-3.023-.785-1.428-2.787-2.079a2.24,2.24,0,0,1-1.354-1.2,72.849,72.849,0,0,0-5.577-8.567C694.926,156.815,694.926,156.815,693.388,157.12Z"/><path class="c" d="M672.044,165.072a14.062,14.062,0,0,0-7.553,5.421,94.036,94.036,0,0,0,.9,10.152c1.7-.811,1.7-.811,3.485-1.64-.758-5.247-.758-5.247-1.164-9.7a7.665,7.665,0,0,1,3.562-2.252C671.649,166.048,671.649,166.048,672.044,165.072Z"/><path class="c" d="M659.911,172.255a77.6,77.6,0,0,0,.106,11.192c1.306-.754,1.306-.754,2.7-1.526a81,81,0,0,1-.476-11.559c-.265.208-.265.208-.53.419C660.793,171.517,660.793,171.517,659.911,172.255Z"/><path class="c" d="M661.177,168.048c-1.969,1.965-1.581,3.9.478,1.886C663.494,168.291,663.193,166.225,661.177,168.048Z"/><path class="d" d="M665.691,208.818c3.9-3.478,10.336,4.432,12.572-.49,1.114-2.454-1.044-5.445-3.567-6.553a13.563,13.563,0,0,0-7.4-1.031,7.477,7.477,0,0,0-6.589,6.285c-3.083,19.446,36.373,28.6,50.267,11.922,5.934-7.125,5.337-17.377-2.754-25.914-7.415-7.824-20.885-12.394-28.135-12.2-5.332.144-12.36,3.068-9.687,9.436,3.7,8.817,19.679,9.355,27.641,15.867,11.546,9.444-8.051,18.348-23.692,13.256C668.8,217.593,664.068,211.631,665.691,208.818Z"/></g></svg>