<svg width="390" height="140" viewBox="0 0 390 140" fill="none" xmlns="http://www.w3.org/2000/svg">
<rect width="390" height="140" rx="5" fill="#00C0C0"/>
<path fill-rule="evenodd" clip-rule="evenodd" d="M298.755 78.0011L281.38 15.791C268.924 15.791 257.22 23.2783 255.527 36.2308L243 124.352C254.851 124.352 266.61 117.162 268.34 104.789L273.352 65.5374L289.058 124.522H298.755V78.0011Z" fill="#04D2D2"/>
<path fill-rule="evenodd" clip-rule="evenodd" d="M302.438 0H369.6C372.362 0 374.6 2.23882 374.6 5.00039L374.592 108.511C374.592 125.277 362.323 139.972 345.529 139.978L307.44 139.997C304.678 139.999 302.438 137.76 302.438 134.997V129.522C302.438 126.761 304.676 124.522 307.438 124.522H308.045C310.311 124.522 312.294 122.998 312.877 120.808L323.579 80.603C324.589 76.8071 330.027 76.9564 330.827 80.8021C331.186 82.5278 332.706 83.7657 334.469 83.7686L346.251 83.7882C349.29 83.7933 351.63 81.1095 351.212 78.1L343.118 19.8578C342.774 17.3861 340.661 15.5461 338.165 15.5461H335.127C319.226 15.5461 315.368 31.1172 314.592 33.4355L312.257 41.8943C310.707 47.5087 302.438 46.3882 302.438 40.5639V0ZM331 108.545C331 117.152 337.515 124.194 345.483 124.194C353.447 124.194 359.963 117.152 359.963 108.545C359.963 99.938 353.447 92.8967 345.483 92.8967C337.515 92.8967 331 99.938 331 108.545Z" fill="#04D2D2"/>
<path d="M19.9 43.7H25C25.1 43.7 25.16 43.66 25.16 43.56V41.68C25.16 41.56 25.1 41.54 25 41.54H19.9V38.04H25.58C25.7 38.04 25.76 38 25.74 37.88L25.54 36.02C25.52 35.9 25.48 35.86 25.36 35.86H17.64C17.52 35.86 17.48 35.9 17.48 36V48.84C17.48 48.94 17.52 49 17.62 49H19.74C19.86 49 19.9 48.96 19.9 48.84V43.7ZM33.6559 45.54L34.8159 48.88C34.8559 48.96 34.9159 49 35.0159 49H37.2559C37.3759 49 37.3959 48.94 37.3759 48.82L32.7559 35.98C32.7359 35.88 32.7159 35.86 32.6159 35.86H29.8359C29.7559 35.86 29.7159 35.92 29.7159 36C29.6759 36.68 29.6159 36.88 29.5359 37.08L25.4159 48.8C25.3959 48.94 25.4359 49 25.5559 49H27.5559C27.6759 49 27.7359 48.96 27.7759 48.84L28.8759 45.54H33.6559ZM29.5159 43.36C30.1159 41.54 30.9159 39.2 31.2359 37.86H31.2559C31.6559 39.26 32.5959 42.04 33.0159 43.36H29.5159ZM40.5291 42.42C40.5291 39.46 42.0691 37.8 44.2091 37.8C46.5291 37.8 47.9091 39.62 47.9291 42.42C47.9291 45.2 46.5691 47.06 44.3091 47.06C41.8491 47.06 40.5291 45 40.5291 42.42ZM50.9091 51.64C50.9891 51.64 51.0091 51.54 50.9491 51.48C50.0891 50.72 48.4291 49.18 47.4891 48.32C49.3091 47.22 50.4291 45.1 50.4091 42.36C50.3891 38.66 48.1491 35.66 44.2291 35.66C40.5491 35.66 38.0491 38.58 38.0491 42.42C38.0491 46.32 40.3491 49.2 44.2291 49.2C44.4491 49.2 44.6691 49.18 44.8891 49.16C45.9491 50.16 46.9091 51.02 47.4891 51.52C47.5491 51.56 47.6691 51.64 47.8091 51.64H50.9091ZM58.1311 41.46C58.2511 41.5 58.3111 41.44 58.3111 41.34V39.58C58.3111 39.48 58.2911 39.4 58.1911 39.34C57.7111 39.1 56.8311 38.94 55.6711 38.94C53.1711 38.94 51.9311 40.36 51.9311 41.88C51.9311 43.32 52.7111 44.22 54.8911 45.02C56.1311 45.52 56.5111 45.84 56.5111 46.34C56.5111 46.86 56.0111 47.22 54.9711 47.22C54.0711 47.22 52.9711 46.98 52.1111 46.42C52.0311 46.38 51.9511 46.42 51.9511 46.52V48.42C51.9511 48.54 51.9911 48.58 52.0911 48.64C52.6911 48.98 53.7311 49.2 54.9111 49.2C57.3711 49.2 58.8511 48.02 58.8511 46.14C58.8511 44.72 58.0711 43.82 55.7911 42.98C54.5111 42.48 54.2111 42.18 54.2111 41.74C54.2111 41.32 54.5711 40.88 55.6311 40.88C56.5111 40.88 57.5111 41.12 58.1311 41.46Z" fill="white"/>
<path d="M24.288 84.72C24.288 84.64 24.256 84.64 24.192 84.656C23.6 84.88 23.008 84.944 22.192 84.944C20.512 84.944 18 84 18 80.656C18 78.096 19.712 76.464 22.224 76.464C23.104 76.464 23.824 76.592 24.272 76.832C24.32 76.848 24.384 76.848 24.384 76.752V75.68C24.384 75.616 24.352 75.568 24.304 75.552C23.952 75.376 23.328 75.264 22.256 75.264C18.848 75.264 16.64 77.488 16.64 80.688C16.64 84.608 19.376 86.16 22.048 86.16C22.944 86.16 23.68 86.08 24.208 85.856C24.272 85.84 24.288 85.776 24.288 85.696V84.72ZM25.8388 84.384C25.8388 85.888 26.5908 86.16 27.3748 86.16C27.7108 86.16 27.9668 86.112 28.1108 86.048C28.1748 86.016 28.1908 86 28.1908 85.92V85.088C28.1908 85.024 28.1748 84.992 28.1268 84.992C27.9828 85.024 27.9188 85.04 27.8068 85.04C27.4228 85.04 27.1668 84.896 27.1668 84.272V74.624C27.1668 74.56 27.1508 74.528 27.0707 74.528H25.9508C25.8708 74.528 25.8388 74.544 25.8388 74.624V84.384ZM29.6981 85.872C29.6981 85.968 29.7461 86 29.8261 86H30.9301C31.0261 86 31.0421 85.968 31.0421 85.888V78.32C31.0421 78.24 31.0101 78.224 30.9461 78.224H29.8101C29.7301 78.224 29.6981 78.256 29.6981 78.336V85.872ZM30.3701 76.688C30.8661 76.688 31.1861 76.352 31.1861 75.872C31.1861 75.408 30.8981 75.056 30.3861 75.056C29.9061 75.056 29.5701 75.392 29.5701 75.872C29.5701 76.352 29.8741 76.688 30.3701 76.688ZM38.4919 84.8C38.4919 84.752 38.4759 84.72 38.3959 84.736C37.9959 84.896 37.4999 84.96 36.9079 84.96C35.4199 84.96 34.0919 84.016 34.0919 82.096C34.0919 80.352 35.2599 79.248 36.9079 79.248C37.5639 79.248 37.9799 79.328 38.3799 79.488C38.4439 79.504 38.4919 79.504 38.4919 79.424V78.416C38.4919 78.336 38.4919 78.304 38.4279 78.272C38.1719 78.16 37.7239 78.064 36.9079 78.064C34.3959 78.064 32.7319 79.808 32.7319 82.144C32.7319 84.304 34.0759 86.16 36.6839 86.16C37.2759 86.16 37.8999 86.112 38.4279 85.904C38.4919 85.888 38.4919 85.856 38.4919 85.792V84.8ZM44.9684 78.224C44.9044 78.224 44.8724 78.24 44.8084 78.304C44.3924 78.752 42.1844 81.04 41.4324 81.792V74.624C41.4324 74.56 41.4004 74.528 41.3364 74.528H40.2164C40.1204 74.528 40.1044 74.56 40.1044 74.624V85.888C40.1044 85.968 40.1204 86 40.2164 86H41.3364C41.4164 86 41.4324 85.968 41.4324 85.888V82.128C42.2004 82.96 44.2164 85.072 45.0484 85.92C45.0964 85.968 45.1284 86 45.2084 86H46.7284C46.8084 86 46.8404 85.936 46.7924 85.888C45.6244 84.72 43.8804 82.912 42.8404 81.824C42.8404 81.808 42.8244 81.776 42.8404 81.76C43.4324 81.184 45.8484 78.848 46.2964 78.352C46.3604 78.288 46.3284 78.224 46.2484 78.224H44.9684ZM54.589 84.96C54.589 84.88 54.541 84.88 54.493 84.896C54.221 84.992 53.981 85.024 53.741 85.024C53.037 85.024 52.765 84.608 52.765 83.872V79.376H54.461C54.525 79.376 54.557 79.344 54.557 79.28V78.336C54.557 78.256 54.525 78.224 54.461 78.224H52.765C52.765 77.44 52.813 76.512 52.861 75.952C52.861 75.888 52.829 75.872 52.765 75.888L51.677 76.064C51.613 76.08 51.581 76.112 51.565 76.176C51.501 76.528 51.437 77.632 51.421 78.224H50.333C50.253 78.224 50.221 78.256 50.221 78.336V79.248C50.221 79.328 50.237 79.36 50.333 79.376H51.421V84.064C51.421 85.6 52.125 86.16 53.293 86.16C53.725 86.16 54.125 86.096 54.493 85.936C54.573 85.904 54.589 85.84 54.589 85.776V84.96ZM59.0525 78.064C56.8125 78.064 55.3725 79.856 55.3725 82.112C55.3725 84.08 56.4765 86.16 59.0525 86.16C61.1965 86.16 62.7005 84.528 62.7005 82.096C62.7005 79.792 61.3085 78.064 59.0525 78.064ZM58.9885 79.216C60.6525 79.216 61.3405 80.64 61.3405 82.128C61.3405 84.112 60.2205 85.008 59.0845 85.008C57.5645 85.008 56.7165 83.712 56.7165 82.08C56.7165 80.368 57.6445 79.216 58.9885 79.216ZM69.4011 80.128C69.9131 79.568 70.6171 79.248 71.4011 79.248C72.5211 79.248 73.0491 80.064 73.0491 81.296V85.872C73.0491 85.968 73.0811 86 73.1611 86H74.2811C74.3611 86 74.3931 85.968 74.3931 85.888V81.152C74.3931 78.624 72.9211 78.064 71.7851 78.064C70.8411 78.064 70.0731 78.384 69.4171 78.992L69.4011 74.608C69.4011 74.544 69.3851 74.528 69.3211 74.528H68.1691C68.0891 74.528 68.0731 74.56 68.0731 74.624V85.888C68.0731 85.968 68.1051 86 68.1851 86H69.3051C69.3851 86 69.4011 85.984 69.4011 85.904V80.128ZM80.6993 84.8C80.2352 84.992 79.7552 85.072 79.2433 85.072C77.8353 85.072 77.3393 84.368 77.3393 83.648C77.3393 82.752 78.0913 82.224 79.6432 82.224C80.1233 82.224 80.4753 82.256 80.6993 82.288V84.8ZM81.9953 81.072C81.9953 79.408 81.1473 78.064 79.0993 78.064C78.2513 78.064 77.4513 78.24 76.8273 78.544C76.7793 78.576 76.7473 78.608 76.7473 78.672V79.648C76.7473 79.728 76.8113 79.744 76.8593 79.728C77.4193 79.424 78.1233 79.248 78.8913 79.248C80.4593 79.248 80.6993 80.352 80.6993 80.848V81.232C80.5233 81.216 80.1873 81.2 79.5953 81.2C77.6113 81.2 76.0273 81.952 76.0273 83.648C76.0273 85.328 77.3073 86.16 79.0033 86.16C79.9313 86.16 80.8433 86.016 81.9953 85.472C82.0273 85.456 82.0273 85.44 82.0273 85.408C81.9953 85.152 81.9953 84.912 81.9953 84.64V81.072ZM87.1939 86C87.2739 86 87.3059 85.968 87.3379 85.904C87.6899 84.944 89.6419 79.584 90.1059 78.336C90.1379 78.256 90.0899 78.224 90.0419 78.224H88.9379C88.8739 78.224 88.8419 78.24 88.8099 78.304C87.4019 82.4 86.8099 84.112 86.6179 84.768H86.5859C86.4099 84.112 85.8339 82.368 84.4899 78.32C84.4579 78.256 84.4419 78.224 84.3619 78.224H83.1299C83.0499 78.224 83.0499 78.272 83.0659 78.336C83.4499 79.408 85.4179 84.944 85.7539 85.92C85.7859 85.968 85.8019 86 85.8979 86H87.1939ZM95.7358 82.272C96.4398 82.272 97.1438 82.256 97.3838 82.208C97.4478 82.208 97.4958 82.16 97.4958 82.112C97.5278 81.968 97.5598 81.68 97.5598 81.28C97.5598 79.92 96.7278 78.064 94.4398 78.064C92.2158 78.064 90.9038 79.936 90.9038 82.176C90.9038 84.128 91.8958 86.16 94.6638 86.16C95.6718 86.16 96.3758 85.968 96.9198 85.696C96.9678 85.664 96.9998 85.632 96.9998 85.536V84.624C96.9998 84.56 96.9678 84.528 96.9198 84.56C96.2958 84.864 95.6238 84.992 94.9198 84.992C93.1118 84.992 92.2318 83.792 92.2478 82.272H95.7358ZM92.2638 81.28C92.4078 80.208 93.0638 79.168 94.3918 79.168C95.8958 79.168 96.2798 80.496 96.2798 81.072C96.2798 81.12 96.2798 81.2 96.2638 81.248C96.2158 81.264 96.0238 81.28 95.2398 81.28H92.2638ZM106.934 84.8C106.47 84.992 105.99 85.072 105.478 85.072C104.07 85.072 103.574 84.368 103.574 83.648C103.574 82.752 104.326 82.224 105.878 82.224C106.358 82.224 106.71 82.256 106.934 82.288V84.8ZM108.23 81.072C108.23 79.408 107.382 78.064 105.334 78.064C104.486 78.064 103.686 78.24 103.062 78.544C103.014 78.576 102.982 78.608 102.982 78.672V79.648C102.982 79.728 103.046 79.744 103.094 79.728C103.654 79.424 104.358 79.248 105.126 79.248C106.694 79.248 106.934 80.352 106.934 80.848V81.232C106.758 81.216 106.422 81.2 105.83 81.2C103.846 81.2 102.262 81.952 102.262 83.648C102.262 85.328 103.542 86.16 105.238 86.16C106.166 86.16 107.078 86.016 108.23 85.472C108.262 85.456 108.262 85.44 108.262 85.408C108.23 85.152 108.23 84.912 108.23 84.64V81.072ZM114.279 74.528C114.199 74.528 114.167 74.544 114.167 74.624V85.696C114.167 85.76 114.199 85.824 114.263 85.84C114.951 86.064 115.655 86.16 116.455 86.16C118.711 86.16 120.887 84.688 120.887 81.808C120.887 79.648 119.447 78.064 117.239 78.064C116.599 78.064 116.023 78.176 115.511 78.384V74.624C115.511 74.528 115.479 74.528 115.399 74.528H114.279ZM119.527 81.92C119.527 83.984 118.103 85.008 116.567 85.008C116.135 85.008 115.815 84.976 115.511 84.88V79.504C115.911 79.344 116.343 79.232 117.031 79.232C118.567 79.232 119.527 80.288 119.527 81.92ZM126.97 82.272C127.674 82.272 128.378 82.256 128.618 82.208C128.682 82.208 128.73 82.16 128.73 82.112C128.762 81.968 128.794 81.68 128.794 81.28C128.794 79.92 127.962 78.064 125.674 78.064C123.45 78.064 122.138 79.936 122.138 82.176C122.138 84.128 123.13 86.16 125.898 86.16C126.906 86.16 127.61 85.968 128.154 85.696C128.202 85.664 128.234 85.632 128.234 85.536V84.624C128.234 84.56 128.202 84.528 128.154 84.56C127.53 84.864 126.858 84.992 126.154 84.992C124.346 84.992 123.466 83.792 123.482 82.272H126.97ZM123.498 81.28C123.642 80.208 124.298 79.168 125.626 79.168C127.13 79.168 127.514 80.496 127.514 81.072C127.514 81.12 127.514 81.2 127.498 81.248C127.45 81.264 127.258 81.28 126.474 81.28H123.498ZM135.324 79.376V84.064C135.324 85.6 136.028 86.16 137.18 86.16C137.612 86.16 138.076 86.096 138.46 85.904C138.524 85.872 138.54 85.824 138.54 85.744V84.928C138.54 84.848 138.492 84.848 138.444 84.864C138.14 84.976 137.884 85.024 137.644 85.024C136.924 85.024 136.652 84.608 136.652 83.872V79.376H138.364C138.428 79.376 138.46 79.344 138.46 79.28V78.336C138.46 78.256 138.444 78.224 138.364 78.224H136.668C136.668 77.44 136.716 76.512 136.764 75.952C136.764 75.888 136.732 75.888 136.668 75.904L135.58 76.064C135.516 76.08 135.5 76.112 135.484 76.176C135.404 76.544 135.34 77.632 135.324 78.224H132.06C132.076 77.44 132.108 76.512 132.172 75.952C132.172 75.888 132.124 75.888 132.06 75.904L130.972 76.064C130.924 76.08 130.892 76.112 130.876 76.176C130.796 76.544 130.732 77.632 130.732 78.224H129.66C129.58 78.224 129.564 78.256 129.564 78.336V79.248C129.564 79.328 129.58 79.36 129.66 79.376H130.716V84.064C130.716 85.6 131.42 86.16 132.588 86.16C133.02 86.16 133.484 86.096 133.852 85.904C133.932 85.872 133.932 85.824 133.932 85.744V84.928C133.932 84.848 133.9 84.848 133.852 84.864C133.532 84.976 133.292 85.024 133.036 85.024C132.332 85.024 132.06 84.608 132.06 83.872V79.376H135.324ZM144.111 82.272C144.815 82.272 145.519 82.256 145.759 82.208C145.823 82.208 145.871 82.16 145.871 82.112C145.903 81.968 145.935 81.68 145.935 81.28C145.935 79.92 145.103 78.064 142.815 78.064C140.591 78.064 139.279 79.936 139.279 82.176C139.279 84.128 140.271 86.16 143.039 86.16C144.047 86.16 144.751 85.968 145.295 85.696C145.343 85.664 145.375 85.632 145.375 85.536V84.624C145.375 84.56 145.343 84.528 145.295 84.56C144.671 84.864 143.999 84.992 143.295 84.992C141.487 84.992 140.607 83.792 140.623 82.272H144.111ZM140.639 81.28C140.783 80.208 141.439 79.168 142.767 79.168C144.271 79.168 144.655 80.496 144.655 81.072C144.655 81.12 144.655 81.2 144.639 81.248C144.591 81.264 144.399 81.28 143.615 81.28H140.639ZM147.558 78.224C147.493 78.224 147.478 78.256 147.478 78.32C147.526 78.768 147.558 79.696 147.558 80.368V85.888C147.558 85.968 147.59 86 147.67 86H148.806C148.87 86 148.902 85.984 148.902 85.904L148.918 80.592C149.318 79.952 150.326 79.408 151.43 79.424C151.526 79.424 151.542 79.408 151.542 79.328V78.176C151.542 78.08 151.51 78.064 151.43 78.064C150.406 78.064 149.414 78.672 148.854 79.44C148.838 79.088 148.789 78.528 148.726 78.336C148.694 78.256 148.678 78.224 148.582 78.224H147.558ZM161.218 78.224C161.154 78.224 161.122 78.24 161.058 78.304C160.642 78.752 158.434 81.04 157.682 81.792V74.624C157.682 74.56 157.65 74.528 157.586 74.528H156.466C156.37 74.528 156.354 74.56 156.354 74.624V85.888C156.354 85.968 156.37 86 156.466 86H157.586C157.666 86 157.682 85.968 157.682 85.888V82.128C158.45 82.96 160.466 85.072 161.298 85.92C161.346 85.968 161.378 86 161.458 86H162.978C163.058 86 163.09 85.936 163.042 85.888C161.874 84.72 160.13 82.912 159.09 81.824C159.09 81.808 159.074 81.776 159.09 81.76C159.682 81.184 162.098 78.848 162.546 78.352C162.61 78.288 162.578 78.224 162.498 78.224H161.218ZM163.839 85.888C163.839 85.968 163.871 86 163.935 86H165.071C165.151 86 165.167 85.968 165.167 85.888V80.224C165.679 79.616 166.351 79.248 167.167 79.248C168.287 79.248 168.815 80.064 168.815 81.28V85.872C168.815 85.968 168.847 86 168.927 86H170.047C170.127 86 170.159 85.968 170.159 85.888V81.152C170.159 78.624 168.687 78.064 167.551 78.064C166.623 78.064 165.807 78.416 165.103 79.12C165.071 78.768 165.055 78.464 165.007 78.32C164.975 78.256 164.943 78.224 164.863 78.224H163.871C163.791 78.224 163.775 78.256 163.775 78.32C163.807 78.592 163.839 79.488 163.839 80.032V85.888ZM175.521 78.064C173.281 78.064 171.841 79.856 171.841 82.112C171.841 84.08 172.945 86.16 175.521 86.16C177.665 86.16 179.169 84.528 179.169 82.096C179.169 79.792 177.777 78.064 175.521 78.064ZM175.457 79.216C177.121 79.216 177.809 80.64 177.809 82.128C177.809 84.112 176.689 85.008 175.553 85.008C174.033 85.008 173.185 83.712 173.185 82.08C173.185 80.368 174.113 79.216 175.457 79.216ZM188.674 86C188.77 86 188.786 85.968 188.818 85.904L191.106 78.32C191.122 78.256 191.09 78.224 191.026 78.224H189.906C189.842 78.224 189.81 78.256 189.794 78.304C188.546 82.64 188.306 84 188.13 84.752H188.098C187.97 84.128 187.746 82.96 186.45 78.32C186.434 78.256 186.402 78.224 186.338 78.224H185.042C184.962 78.224 184.946 78.256 184.93 78.336C183.57 82.864 183.282 84.192 183.154 84.736H183.122C183.01 84.176 182.738 82.704 181.554 78.304C181.538 78.24 181.49 78.224 181.442 78.224H180.242C180.162 78.224 180.13 78.272 180.162 78.336L182.242 85.888C182.258 85.968 182.29 86 182.418 86H183.65C183.73 86 183.778 85.984 183.81 85.888C184.722 82.8 185.298 80.848 185.586 79.568H185.602C185.778 80.32 186.082 81.648 187.266 85.888C187.282 85.968 187.314 86 187.41 86H188.674ZM192.464 84.384C192.464 85.888 193.216 86.16 194 86.16C194.336 86.16 194.592 86.112 194.736 86.048C194.8 86.016 194.816 86 194.816 85.92V85.088C194.816 85.024 194.8 84.992 194.752 84.992C194.608 85.024 194.544 85.04 194.432 85.04C194.048 85.04 193.792 84.896 193.792 84.272V74.624C193.792 74.56 193.776 74.528 193.696 74.528H192.576C192.496 74.528 192.464 74.544 192.464 74.624V84.384ZM200.595 82.272C201.299 82.272 202.003 82.256 202.243 82.208C202.307 82.208 202.355 82.16 202.355 82.112C202.387 81.968 202.419 81.68 202.419 81.28C202.419 79.92 201.587 78.064 199.299 78.064C197.075 78.064 195.763 79.936 195.763 82.176C195.763 84.128 196.755 86.16 199.523 86.16C200.531 86.16 201.235 85.968 201.779 85.696C201.827 85.664 201.859 85.632 201.859 85.536V84.624C201.859 84.56 201.827 84.528 201.779 84.56C201.155 84.864 200.483 84.992 199.779 84.992C197.971 84.992 197.091 83.792 197.107 82.272H200.595ZM197.123 81.28C197.267 80.208 197.923 79.168 199.251 79.168C200.755 79.168 201.139 80.496 201.139 81.072C201.139 81.12 201.139 81.2 201.123 81.248C201.075 81.264 200.883 81.28 200.099 81.28H197.123ZM207.575 86.16C208.471 86.16 209.367 86 210.279 85.568C210.343 85.536 210.359 85.52 210.359 85.456C210.327 85.184 210.327 84.912 210.327 84.688V74.608C210.327 74.56 210.311 74.528 210.231 74.528H209.079C209.015 74.528 208.983 74.544 208.983 74.624V78.16C208.679 78.112 208.423 78.064 207.975 78.064C205.367 78.064 203.623 79.824 203.623 82.176C203.623 84.816 205.351 86.16 207.575 86.16ZM208.983 84.784C208.615 84.944 208.119 84.992 207.703 84.992C206.295 84.992 204.983 84.192 204.983 82.112C204.983 80.448 206.119 79.216 207.943 79.216C208.343 79.216 208.727 79.264 208.983 79.376V84.784ZM215.73 85.84C216.866 85.904 217.858 86.16 217.858 87.104C217.858 87.904 217.074 88.736 215.314 88.736C213.842 88.736 212.962 87.984 212.962 87.248C212.962 86.896 213.378 86.224 214.034 85.76L215.73 85.84ZM215.042 79.088C216.162 79.088 216.658 79.872 216.658 80.8C216.658 81.84 216.034 82.448 215.026 82.448C213.954 82.448 213.378 81.744 213.378 80.768C213.378 79.744 214.034 79.088 215.042 79.088ZM214.37 84.608C214.21 84.416 214.114 84.192 214.082 83.952C214.05 83.76 214.082 83.552 214.162 83.36C214.45 83.424 214.738 83.456 215.042 83.456C216.626 83.456 217.938 82.576 217.938 80.816C217.938 80.08 217.666 79.568 217.378 79.264C217.762 79.296 218.434 79.328 218.85 79.328C218.93 79.328 218.946 79.296 218.946 79.232V78.32C218.946 78.256 218.93 78.224 218.85 78.224H216.594C216.498 78.224 216.402 78.224 216.258 78.192C215.97 78.128 215.554 78.064 215.058 78.064C213.17 78.064 212.066 79.296 212.066 80.784C212.066 81.792 212.498 82.512 213.154 82.944C212.978 83.248 212.882 83.6 212.882 83.952C212.882 84.384 213.01 84.8 213.266 85.152C212.162 86.08 211.698 86.8 211.698 87.344C211.698 88.528 212.866 89.776 215.234 89.776C217.586 89.776 219.106 88.512 219.106 86.912C219.106 85.504 217.986 84.784 216.002 84.688L214.37 84.608ZM224.501 82.272C225.205 82.272 225.909 82.256 226.149 82.208C226.213 82.208 226.261 82.16 226.261 82.112C226.293 81.968 226.325 81.68 226.325 81.28C226.325 79.92 225.493 78.064 223.205 78.064C220.981 78.064 219.669 79.936 219.669 82.176C219.669 84.128 220.661 86.16 223.429 86.16C224.437 86.16 225.141 85.968 225.685 85.696C225.733 85.664 225.765 85.632 225.765 85.536V84.624C225.765 84.56 225.733 84.528 225.685 84.56C225.061 84.864 224.389 84.992 223.685 84.992C221.877 84.992 220.997 83.792 221.013 82.272H224.501ZM221.029 81.28C221.173 80.208 221.829 79.168 223.157 79.168C224.661 79.168 225.045 80.496 225.045 81.072C225.045 81.12 225.045 81.2 225.029 81.248C224.981 81.264 224.789 81.28 224.005 81.28H221.029ZM234.771 78.064C232.531 78.064 231.091 79.856 231.091 82.112C231.091 84.08 232.195 86.16 234.771 86.16C236.915 86.16 238.419 84.528 238.419 82.096C238.419 79.792 237.027 78.064 234.771 78.064ZM234.707 79.216C236.371 79.216 237.059 80.64 237.059 82.128C237.059 84.112 235.939 85.008 234.803 85.008C233.283 85.008 232.435 83.712 232.435 82.08C232.435 80.368 233.363 79.216 234.707 79.216ZM240.233 79.376V85.888C240.233 85.968 240.265 86 240.329 86H241.465C241.545 86 241.561 85.952 241.561 85.888V79.376H243.097C243.161 79.36 243.193 79.344 243.193 79.264V78.304C243.193 78.256 243.161 78.224 243.097 78.224H241.561V77.504C241.561 75.968 242.089 75.552 242.857 75.552C243.017 75.552 243.241 75.568 243.417 75.632C243.481 75.648 243.513 75.616 243.513 75.552V74.608C243.513 74.544 243.513 74.496 243.433 74.48C243.257 74.4 243.033 74.368 242.697 74.368C241.705 74.368 241.017 74.832 240.601 75.632C240.361 76.112 240.233 76.72 240.233 77.648V78.224H239.193C239.129 78.224 239.097 78.256 239.097 78.32V79.264C239.097 79.344 239.129 79.376 239.193 79.376H240.233ZM251.152 84.96C251.152 84.88 251.104 84.88 251.056 84.896C250.784 84.992 250.544 85.024 250.304 85.024C249.6 85.024 249.328 84.608 249.328 83.872V79.376H251.024C251.088 79.376 251.12 79.344 251.12 79.28V78.336C251.12 78.256 251.088 78.224 251.024 78.224H249.328C249.328 77.44 249.376 76.512 249.424 75.952C249.424 75.888 249.392 75.872 249.328 75.888L248.24 76.064C248.176 76.08 248.144 76.112 248.128 76.176C248.064 76.528 248 77.632 247.984 78.224H246.896C246.816 78.224 246.784 78.256 246.784 78.336V79.248C246.784 79.328 246.8 79.36 246.896 79.376H247.984V84.064C247.984 85.6 248.688 86.16 249.856 86.16C250.288 86.16 250.688 86.096 251.056 85.936C251.136 85.904 251.152 85.84 251.152 85.776V84.96ZM253.932 80.128C254.444 79.568 255.148 79.248 255.932 79.248C257.052 79.248 257.58 80.064 257.58 81.296V85.872C257.58 85.968 257.612 86 257.692 86H258.812C258.892 86 258.924 85.968 258.924 85.888V81.152C258.924 78.624 257.452 78.064 256.316 78.064C255.372 78.064 254.604 78.384 253.948 78.992L253.932 74.608C253.932 74.544 253.916 74.528 253.852 74.528H252.7C252.62 74.528 252.604 74.56 252.604 74.624V85.888C252.604 85.968 252.636 86 252.716 86H253.836C253.916 86 253.932 85.984 253.932 85.904V80.128ZM261.183 85.872C261.183 85.968 261.231 86 261.311 86H262.414C262.511 86 262.527 85.968 262.527 85.888V78.32C262.527 78.24 262.495 78.224 262.431 78.224H261.295C261.215 78.224 261.183 78.256 261.183 78.336V85.872ZM261.855 76.688C262.351 76.688 262.671 76.352 262.671 75.872C262.671 75.408 262.383 75.056 261.871 75.056C261.391 75.056 261.055 75.392 261.055 75.872C261.055 76.352 261.359 76.688 261.855 76.688ZM268.9 79.632C268.98 79.68 269.028 79.632 269.028 79.552V78.576C269.028 78.512 269.028 78.448 268.948 78.416C268.612 78.224 267.956 78.064 267.076 78.064C265.332 78.064 264.356 79.072 264.356 80.224C264.356 81.36 265.028 82.016 266.628 82.624C267.732 83.056 268.084 83.408 268.084 84C268.084 84.592 267.588 85.04 266.564 85.04C265.86 85.04 265.044 84.848 264.404 84.4C264.356 84.368 264.308 84.4 264.308 84.48V85.552C264.308 85.632 264.34 85.664 264.388 85.696C264.852 85.968 265.652 86.16 266.532 86.16C268.196 86.16 269.396 85.344 269.396 83.872C269.396 82.736 268.74 82.08 267.124 81.456C265.924 80.976 265.636 80.64 265.636 80.16C265.636 79.68 265.988 79.168 267.044 79.168C267.716 79.168 268.452 79.36 268.9 79.632ZM277.674 78.064C276.314 78.064 275.258 78.496 274.698 78.704C274.666 78.72 274.666 78.752 274.666 78.768C274.682 78.976 274.698 79.328 274.698 79.472V89.44C274.698 89.52 274.714 89.536 274.778 89.536C274.842 89.52 275.578 89.44 275.946 89.408C276.026 89.392 276.026 89.36 276.026 89.296V86.096C276.25 86.128 276.474 86.16 276.842 86.16C279.114 86.16 281.418 84.752 281.418 81.84C281.418 79.696 280.042 78.064 277.674 78.064ZM277.514 79.232C279.13 79.232 280.058 80.288 280.058 81.92C280.058 84.048 278.49 85.008 276.938 85.008C276.634 85.008 276.298 84.992 276.026 84.912V79.488C276.474 79.328 276.954 79.232 277.514 79.232ZM283.104 84.384C283.104 85.888 283.856 86.16 284.64 86.16C284.976 86.16 285.232 86.112 285.376 86.048C285.44 86.016 285.456 86 285.456 85.92V85.088C285.456 85.024 285.44 84.992 285.392 84.992C285.248 85.024 285.184 85.04 285.072 85.04C284.688 85.04 284.432 84.896 284.432 84.272V74.624C284.432 74.56 284.416 74.528 284.336 74.528H283.216C283.136 74.528 283.104 74.544 283.104 74.624V84.384ZM291.074 84.8C290.61 84.992 290.13 85.072 289.618 85.072C288.21 85.072 287.714 84.368 287.714 83.648C287.714 82.752 288.466 82.224 290.018 82.224C290.498 82.224 290.85 82.256 291.074 82.288V84.8ZM292.37 81.072C292.37 79.408 291.522 78.064 289.474 78.064C288.626 78.064 287.826 78.24 287.202 78.544C287.154 78.576 287.122 78.608 287.122 78.672V79.648C287.122 79.728 287.186 79.744 287.234 79.728C287.794 79.424 288.498 79.248 289.266 79.248C290.834 79.248 291.074 80.352 291.074 80.848V81.232C290.898 81.216 290.562 81.2 289.97 81.2C287.986 81.2 286.402 81.952 286.402 83.648C286.402 85.328 287.682 86.16 289.378 86.16C290.306 86.16 291.218 86.016 292.37 85.472C292.402 85.456 292.402 85.44 292.402 85.408C292.37 85.152 292.37 84.912 292.37 84.64V81.072ZM297.839 84.96C297.839 84.88 297.791 84.88 297.743 84.896C297.471 84.992 297.231 85.024 296.991 85.024C296.287 85.024 296.015 84.608 296.015 83.872V79.376H297.711C297.775 79.376 297.807 79.344 297.807 79.28V78.336C297.807 78.256 297.775 78.224 297.711 78.224H296.015C296.015 77.44 296.063 76.512 296.111 75.952C296.111 75.888 296.079 75.872 296.015 75.888L294.927 76.064C294.863 76.08 294.831 76.112 294.815 76.176C294.751 76.528 294.687 77.632 294.671 78.224H293.583C293.503 78.224 293.471 78.256 293.471 78.336V79.248C293.471 79.328 293.487 79.36 293.583 79.376H294.671V84.064C294.671 85.6 295.375 86.16 296.543 86.16C296.975 86.16 297.375 86.096 297.743 85.936C297.823 85.904 297.839 85.84 297.839 85.776V84.96ZM299.373 79.376V85.888C299.373 85.968 299.405 86 299.469 86H300.605C300.685 86 300.701 85.952 300.701 85.888V79.376H302.237C302.301 79.36 302.333 79.344 302.333 79.264V78.304C302.333 78.256 302.301 78.224 302.237 78.224H300.701V77.504C300.701 75.968 301.229 75.552 301.997 75.552C302.157 75.552 302.381 75.568 302.557 75.632C302.621 75.648 302.653 75.616 302.653 75.552V74.608C302.653 74.544 302.653 74.496 302.573 74.48C302.397 74.4 302.173 74.368 301.837 74.368C300.845 74.368 300.157 74.832 299.741 75.632C299.501 76.112 299.373 76.72 299.373 77.648V78.224H298.333C298.269 78.224 298.237 78.256 298.237 78.32V79.264C298.237 79.344 298.269 79.376 298.333 79.376H299.373ZM306.615 78.064C304.375 78.064 302.935 79.856 302.935 82.112C302.935 84.08 304.039 86.16 306.615 86.16C308.759 86.16 310.263 84.528 310.263 82.096C310.263 79.792 308.871 78.064 306.615 78.064ZM306.551 79.216C308.215 79.216 308.903 80.64 308.903 82.128C308.903 84.112 307.783 85.008 306.647 85.008C305.127 85.008 304.279 83.712 304.279 82.08C304.279 80.368 305.207 79.216 306.551 79.216ZM311.933 78.224C311.868 78.224 311.853 78.256 311.853 78.32C311.901 78.768 311.933 79.696 311.933 80.368V85.888C311.933 85.968 311.965 86 312.045 86H313.181C313.245 86 313.277 85.984 313.277 85.904L313.293 80.592C313.693 79.952 314.701 79.408 315.805 79.424C315.901 79.424 315.917 79.408 315.917 79.328V78.176C315.917 78.08 315.885 78.064 315.805 78.064C314.781 78.064 313.789 78.672 313.229 79.44C313.213 79.088 313.164 78.528 313.101 78.336C313.069 78.256 313.053 78.224 312.957 78.224H311.933ZM318.368 86C318.448 86 318.464 85.968 318.464 85.904V80.144C319.072 79.536 319.648 79.248 320.4 79.248C321.44 79.248 322 79.952 322 81.168V85.888C322 85.968 322.032 86 322.112 86H323.232C323.312 86 323.344 85.968 323.344 85.888V81.2C323.344 80.816 323.312 80.368 323.264 80.176C323.776 79.6 324.432 79.248 325.232 79.248C326.368 79.248 326.864 80.128 326.864 81.216V85.888C326.864 85.968 326.896 86 326.976 86H328.08C328.16 86 328.192 85.968 328.192 85.904V81.12C328.192 78.688 326.784 78.064 325.6 78.064C324.432 78.064 323.6 78.576 322.928 79.232C322.48 78.432 321.76 78.064 320.8 78.064C319.92 78.064 319.136 78.384 318.4 79.072C318.384 78.816 318.352 78.464 318.304 78.304C318.272 78.256 318.24 78.224 318.176 78.224H317.168C317.088 78.224 317.072 78.256 317.072 78.32C317.104 78.624 317.136 79.2 317.136 79.904V85.888C317.136 85.968 317.152 86 317.232 86H318.368ZM330.751 86.16C331.279 86.16 331.599 85.808 331.599 85.28C331.599 84.784 331.263 84.416 330.751 84.416C330.239 84.416 329.887 84.784 329.887 85.28C329.887 85.824 330.239 86.16 330.751 86.16Z" fill="white"/>
</svg>
