<svg width="132" height="140" viewBox="0 0 132 140" fill="none" xmlns="http://www.w3.org/2000/svg">
<path fill-rule="evenodd" clip-rule="evenodd" d="M59.4375 0H126.6C129.362 0 131.6 2.23882 131.6 5.00039L131.592 108.511C131.592 125.277 119.323 139.972 102.529 139.978L64.44 139.997C61.6776 139.999 59.4375 137.76 59.4375 134.997V129.522C59.4375 126.761 61.6761 124.522 64.4375 124.522H65.0454C67.3115 124.522 69.2942 122.998 69.8771 120.808L80.579 80.603C81.5894 76.8071 87.0266 76.9564 87.8272 80.8021C88.1864 82.5278 89.7059 83.7657 91.4686 83.7686L103.251 83.7882C106.29 83.7933 108.63 81.1095 108.212 78.1L100.118 19.8578C99.7743 17.3861 97.6609 15.5461 95.1654 15.5461H92.1266C76.226 15.5461 72.3683 31.1172 71.5922 33.4355L69.2572 41.8943C67.7075 47.5087 59.4375 46.3882 59.4375 40.5639V0ZM87.9998 108.545C87.9998 117.152 94.5152 124.194 102.483 124.194C110.447 124.194 116.963 117.152 116.963 108.545C116.963 99.938 110.447 92.8967 102.483 92.8967C94.5152 92.8967 87.9998 99.938 87.9998 108.545Z" fill="#04D2D2"/>
<path fill-rule="evenodd" clip-rule="evenodd" d="M55.7554 78.0011L38.3798 15.791C25.9245 15.791 14.2195 23.2783 12.5269 36.2308L0 124.352C11.851 124.352 23.6104 117.162 25.3402 104.789L30.3522 65.5374L46.0581 124.522H55.7554V78.0011Z" fill="#04D2D2"/>
</svg>
