<svg width="22" height="21" viewBox="0 0 22 21" fill="none" xmlns="http://www.w3.org/2000/svg">
<path d="M20.3646 16.9705V18.1019C20.3646 19.3464 19.3464 20.3646 18.1019 20.3646H2.26273C1.00692 20.3646 0 19.3464 0 18.1019V2.26273C0 1.01823 1.00692 0 2.26273 0H18.1019C19.3464 0 20.3646 1.01823 20.3646 2.26273V3.3941H10.1823C8.92648 3.3941 7.91956 4.41233 7.91956 5.65683V14.7078C7.91956 15.9523 8.92648 16.9705 10.1823 16.9705H20.3646ZM10.1823 14.7078H21.496V5.65683H10.1823V14.7078ZM14.7078 11.8793C13.7687 11.8793 13.0107 11.1213 13.0107 10.1823C13.0107 9.24326 13.7687 8.48524 14.7078 8.48524C15.6468 8.48524 16.4048 9.24326 16.4048 10.1823C16.4048 11.1213 15.6468 11.8793 14.7078 11.8793Z" fill="#FFFFCC"/>
</svg>
