<svg width="27" height="27" viewBox="0 0 27 27" fill="none" xmlns="http://www.w3.org/2000/svg">
<path d="M26.3043 13.1273C26.3177 20.3737 20.4081 26.2991 13.1617 26.3042C10.0319 26.3064 7.15714 25.2154 4.898 23.3921C4.31056 22.918 4.26665 22.0376 4.80047 21.5038L5.39799 20.9063C5.85455 20.4497 6.58344 20.3997 7.08926 20.801C8.7537 22.1218 10.8601 22.9102 13.1521 22.9102C18.5458 22.9102 22.9102 18.545 22.9102 13.1521C22.9102 7.75843 18.545 3.3941 13.1521 3.3941C10.5634 3.3941 8.21218 4.40008 6.46639 6.04213L9.15802 8.73376C9.69259 9.26832 9.31399 10.1823 8.55806 10.1823H0.848524C0.379874 10.1823 0 9.80242 0 9.33377V1.62423C0 0.868306 0.913967 0.489705 1.44854 1.02422L4.06687 3.64256C6.42805 1.38606 9.62821 0 13.1521 0C20.4075 0 26.2908 5.87497 26.3043 13.1273ZM16.71 17.3054L17.2309 16.6356C17.6625 16.0807 17.5625 15.281 17.0077 14.8495L14.8492 13.1706V7.63672C14.8492 6.93377 14.2793 6.36393 13.5764 6.36393H12.7279C12.0249 6.36393 11.4551 6.93377 11.4551 7.63672V14.8307L14.9239 17.5287C15.4788 17.9602 16.2784 17.8603 16.71 17.3054Z" fill="#FFFFCC"/>
</svg>
