<svg width="75" height="52" viewBox="0 0 75 52" fill="none" xmlns="http://www.w3.org/2000/svg">
<path d="M37.3554 29.5714C43.2633 29.5714 48.6204 31.9747 52.5005 35.8548L47.4521 40.9032C44.8654 38.3164 41.2939 36.7143 37.3554 36.7143C33.4168 36.7143 29.8454 38.3164 27.2586 40.9032L22.2102 35.8548C26.0903 31.9747 31.4474 29.5714 37.3554 29.5714ZM12.1016 25.7462C18.8471 19.0007 27.8157 15.2857 37.3554 15.2857C46.895 15.2857 55.8636 19.0007 62.6092 25.7462L57.5585 30.7969C52.1619 25.4004 44.987 22.4286 37.3554 22.4286C29.7235 22.4286 22.5488 25.4004 17.1523 30.797L12.1016 25.7462ZM56.8187 4.93069C62.7731 7.44922 68.1199 11.0539 72.7106 15.6448L67.6599 20.6954C59.5653 12.6008 48.8028 8.14286 37.3554 8.14286C25.9078 8.14286 15.1455 12.6008 7.05078 20.6954L2 15.6446C6.59085 11.0539 11.9376 7.44922 17.892 4.93069C24.0585 2.32254 30.6069 1 37.3554 1C44.1038 1 50.6521 2.32254 56.8187 4.93069V4.93069ZM33.7839 47.4286C33.7839 45.4561 35.3829 43.8571 37.3554 43.8571C39.3278 43.8571 40.9268 45.4561 40.9268 47.4286C40.9268 49.401 39.3278 51 37.3554 51C35.3829 51 33.7839 49.401 33.7839 47.4286Z" fill="black" stroke="black" stroke-width="2"/>
</svg>
