<svg width="53" height="70" viewBox="0 0 53 70" fill="none" xmlns="http://www.w3.org/2000/svg">
<path d="M0 8.75V61.25C0 66.0762 3.92383 70 8.75 70H43.75C48.5762 70 52.5 66.0762 52.5 61.25V17.5L35 0H8.75C3.92383 0 0 3.92383 0 8.75ZM30.625 35H21.875V26.25H30.625V35ZM43.75 35H35V26.25H39.375C41.7949 26.25 43.75 28.2051 43.75 30.625V35ZM35 52.5H43.75V56.875C43.75 59.2949 41.7949 61.25 39.375 61.25H35V52.5ZM21.875 52.5H30.625V61.25H21.875V52.5ZM8.75 52.5H17.5V61.25H13.125C10.7051 61.25 8.75 59.2949 8.75 56.875V52.5ZM8.75 39.375H43.75V48.125H8.75V39.375ZM8.75 30.625C8.75 28.2051 10.7051 26.25 13.125 26.25H17.5V35H8.75V30.625Z" fill="black"/>
</svg>
