<svg width="69" height="68" viewBox="0 0 69 68" fill="none" xmlns="http://www.w3.org/2000/svg">
<path fill-rule="evenodd" clip-rule="evenodd" d="M30.8015 0H68.2L68.1947 52.0396C68.1947 60.0801 61.8366 67.1258 53.1332 67.13L30.8015 67.14L30.8009 59.7166H35.6999L43.8539 31.3685L45.834 40.1708L56.4887 40.1879L51.5738 7.4558H47.7434C39.5019 7.4558 37.503 14.9234 37.1005 16.035L30.8009 37.1516L30.8015 0V0ZM28.8946 37.4065L19.8896 7.57321C13.4348 7.57321 7.36938 11.163 6.49144 17.375L0 59.6352C6.14214 59.6352 12.2347 56.187 13.1321 50.2529L15.7294 31.4299L23.8693 59.7166H28.8946V37.4065V37.4065ZM45.6039 52.0555C45.6039 56.1829 48.9812 59.5603 53.109 59.5603V59.5603C57.2362 59.5603 60.6135 56.1829 60.6135 52.0555V52.0555C60.6135 47.9275 57.2362 44.5507 53.109 44.5507V44.5507C48.9812 44.5507 45.6039 47.9275 45.6039 52.0555V52.0555Z" fill="#00AEAF"/>
</svg>
