<svg xmlns="http://www.w3.org/2000/svg" xmlns:xlink="http://www.w3.org/1999/xlink" width="110.619" height="110.619" viewBox="0 0 110.619 110.619"><defs><style>.a,.d{fill:#fff;}.b{fill:url(#a);}.c{fill:#040505;}.c,.d{fill-rule:evenodd;}</style><radialGradient id="a" cx="0.547" cy="0.617" r="0.606" gradientTransform="matrix(0.708, 0.706, -0.674, 0.676, 0.569, -0.223)" gradientUnits="objectBoundingBox"><stop offset="0" stop-color="#ffd800"/><stop offset="0.36" stop-color="#ffc000"/><stop offset="1" stop-color="#fe9800"/></radialGradient></defs><g transform="translate(-536.117 -138.8)"><circle class="a" cx="42.52" cy="42.52" r="42.52" transform="translate(536.117 170.515) rotate(-21.898)"/><circle class="b" cx="42.52" cy="42.52" r="42.52" transform="translate(536.117 170.515) rotate(-21.898)"/><path class="c" d="M597.4,198.432c1.862,8.882,1.862,8.882,3.357,16.648-2.182.558-2.182.558-4.386,1.078-.936-4.168-.936-4.168-1.981-8.765-1.038,2.612-1.038,2.612-2.033,5.1-1.2.241-1.2.241-2.394.471-2.245-1.83-2.245-1.83-4.511-3.743,1.273,4.486,1.273,4.486,2.511,8.538-1.949.286-1.949.286-3.868.532-2.429-7.388-2.429-7.388-4.78-15.909,2.059-.419,2.059-.419,4.168-.856,3.337,3.02,3.337,3.02,6.664,5.938,1.415-3.928,1.415-3.928,2.857-8.015,2.207-.509,2.207-.509,4.4-1.02Zm3.259,3.537c2.741-.712,2.741-.712,5.386-1.416,1.082,6.545,1.082,6.545,1.837,12.408,2-.7,2-.7,3.921-1.4-.573-5.788-.573-5.788-1.514-12.205,2.327-.7,2.327-.7,4.512-1.373-.3-1.9-.3-1.9-.646-3.824-6.7,1.79-6.7,1.79-14.344,3.7.433,2.072.433,2.072.848,4.113Zm24.519-11.11a88.39,88.39,0,0,1,.91,13.558c-.8.54-.8.54-1.655,1.074-2-2.7-2-2.7-4.615-5.891.33,4.285.33,4.285.437,8.26-1.3.653-1.3.653-2.674,1.3a131.473,131.473,0,0,0-1.641-15.489c1.5-.417,1.5-.417,2.91-.821,2.951,3.515,2.951,3.515,5.306,6.713-.356-3.992-.356-3.992-.941-8.063C624.239,191.149,624.239,191.149,625.182,190.859Z"/><path class="c" d="M603.963,185.026a48.709,48.709,0,0,1,12.468-.846,21.611,21.611,0,0,1,7.887,2.124,11.373,11.373,0,0,1,4.191,4.085,12.872,12.872,0,0,1,1.432,5.185,19.746,19.746,0,0,1-.8,6.1,27.322,27.322,0,0,1-3.3,6.618,37.306,37.306,0,0,1-6.346,6.535,48.615,48.615,0,0,1-9.965,5.521,54.565,54.565,0,0,1-12.395,2.818,46.624,46.624,0,0,1-11.86-.754,28.178,28.178,0,0,1-9.291-3.947,13.931,13.931,0,0,1-4.943-6.16,10.688,10.688,0,0,1,.221-7.475,21.858,21.858,0,0,1,6.3-8.032,52.243,52.243,0,0,1,11.8-7.16,71.311,71.311,0,0,1,14.6-4.614Zm20.166,4.875a19.525,19.525,0,0,0-7.351-1.514,48.73,48.73,0,0,0-11.683,1.254,72.511,72.511,0,0,0-13.669,4.469,50.343,50.343,0,0,0-10.982,6.473,19.29,19.29,0,0,0-5.352,6.193,6.915,6.915,0,0,0-.463,5.213,9.17,9.17,0,0,0,3.611,4.308,24.2,24.2,0,0,0,7.7,3.134,44.054,44.054,0,0,0,11.384.727,53.505,53.505,0,0,0,12.09-2.664,46.263,46.263,0,0,0,9.737-5.217,33.72,33.72,0,0,0,6.1-6.088,22.353,22.353,0,0,0,2.816-5.412,12.8,12.8,0,0,0,.649-4.352,7.582,7.582,0,0,0-1.114-3.582A8.692,8.692,0,0,0,624.129,189.9Z"/><path class="d" d="M608.56,232.915c2.9-1.5,4.6-2.694,3.6-2.319-1.1.338-4.864,2.148-8.036,3.6-2.95,1.033-3.907,1.409-2.575,1.145A55.411,55.411,0,0,0,608.56,232.915Z"/><path class="d" d="M608.221,231.941c5.19-3.516,8.108-7.337,6.029-7.545-2.579-.489-10.261,3.624-16.039,7.687-4.855,2.365-5.546,3.606-2.7,3.685C598.121,235.647,603.444,234.267,608.221,231.941Z"/><path class="d" d="M596.165,231.283c2.22-1.529,2.858-3.327,1.192-3.786-1.743-.537-5.054.585-7.15,2.253-1.9,1.338-2.007,2.583-.412,2.992A10.19,10.19,0,0,0,596.165,231.283Z"/><path class="d" d="M621.861,218.222c1.476-2.093,2.3-4.087,1.875-4.392-.491-.3-2.141,1.32-3.752,3.61-1.7,2.2-2.606,4.041-2,4.181C618.565,221.72,620.288,220.252,621.861,218.222Z"/><path class="d" d="M581.139,233.22c3.705-1.927,3.493-6.79-2.05-9.535-5.525-3.309-11.746-1.85-12.9,1.488-.325,1.787,2.1,4.228,5.177,6.071C574.584,232.838,578.634,233.88,581.139,233.22Z"/><path class="d" d="M588.472,236.126c2.278-.3,2.577-1,.178-1.369a26.23,26.23,0,0,0-7.932-.265c-1.322.048-.646.452,1.238.955A30.971,30.971,0,0,0,588.472,236.126Z"/><path class="d" d="M618.707,225.48c2.05-2.063,3.369-3.885,2.939-3.888-.5-.015-2.749,1.959-5.078,4.266-2.369,2.058-3.609,3.389-2.884,3.224A22.288,22.288,0,0,0,618.707,225.48Z"/><path class="d" d="M617.751,227.283c1.822-1.581,3.026-2.831,2.711-2.673-.364.166-2.29,1.788-4.321,3.483-2,1.478-3.142,2.351-2.6,2.1A39.39,39.39,0,0,0,617.751,227.283Z"/><path class="d" d="M595.577,236.424c3.406-.5,4.83-.949,2.312-.626-2.823.143-8.329.5-11.217.5-1.817-.193-1.944-.2-.851-.042h0a42.831,42.831,0,0,0,5.605.368c.2,0,.406,0,.608-.007C593.2,236.59,594.427,236.522,595.577,236.424Z"/><path class="d" d="M627.668,213.815c1.914-3.8,3.042-7.424,2.806-8.18-.338-.812-2.136,2.032-4.378,6.524-2.663,4.321-4.414,7.8-3.721,7.966C622.979,220.2,625.416,217.463,627.668,213.815Z"/><path class="d" d="M606.407,225.867c1.348-1.275,1.857-2.539,1.114-2.765-.77-.247-2.526.688-3.923,2.039-1.341,1.241-1.747,2.339-.949,2.519C603.42,227.823,605.075,227.052,606.407,225.867Z"/><path class="d" d="M578.328,234.554c.861.233.159-.079-1.717-.749-1.842-.756-3.733-1.513-4.1-1.631-.31-.141.644.329,2.037.962C575.923,233.7,577.6,234.318,578.328,234.554Z"/></g></svg>