<svg width="132" height="180" viewBox="0 0 132 180" fill="none" xmlns="http://www.w3.org/2000/svg">
<path fill-rule="evenodd" clip-rule="evenodd" d="M0 0H126.999C129.761 0 132 2.23892 131.999 5.00056L131.984 139.515C131.984 161.07 109.542 179.964 78.8219 179.972L5.00175 179.998C2.23964 179.999 0 177.76 0 174.998V165.1C0 162.338 2.23858 160.1 5 160.1H13.8347C15.913 160.1 17.7746 158.814 18.5107 156.871L40.8134 97.9775C42.5094 93.4991 48.9237 93.7368 50.2835 98.3285L51.9988 104.12C52.627 106.242 54.5747 107.698 56.7871 107.7L84.5738 107.733C87.7269 107.737 90.0962 104.856 89.4846 101.763L74.1128 24.018C73.6497 21.6758 71.5953 19.9878 69.2077 19.9878H59.7946C30.7094 19.9878 23.653 40.0078 22.2333 42.9885L9.65397 75.0196C7.63509 80.1603 0 78.7148 0 73.1919V0ZM52.2459 139.558C52.2459 150.625 64.1639 159.677 78.7377 159.677C93.3069 159.677 105.225 150.625 105.225 139.558C105.225 128.492 93.3069 119.439 78.7377 119.439C64.1639 119.439 52.2459 128.492 52.2459 139.558Z" fill="#04D2D2"/>
</svg>
