<svg width="116" height="115" viewBox="0 0 116 115" fill="none" xmlns="http://www.w3.org/2000/svg">
<path fill-rule="evenodd" clip-rule="evenodd" d="M52.5048 0.955078H115.89L115.882 89.1511C115.882 102.778 105.106 114.719 90.3538 114.726L52.5048 114.743V102.162H60.8068L74.6278 54.1181L77.9838 69.0361L96.0408 69.0651L87.7118 13.5911H81.2198C67.2518 13.5911 63.8638 26.2471 63.1818 28.1311L52.5048 63.9191V0.955078ZM49.2738 64.3511L34.0108 13.7901C23.0718 13.7901 12.7918 19.8741 11.3038 30.4021L0.301758 102.024C10.7108 102.024 21.0378 96.1801 22.5578 86.1231L26.9608 54.2221L40.7558 102.162H49.2738V64.3511ZM77.5938 89.1781C77.5938 96.1731 83.3178 101.897 90.3128 101.897C97.3088 101.897 103.032 96.1731 103.032 89.1781C103.032 82.1821 97.3088 76.4591 90.3128 76.4591C83.3178 76.4591 77.5938 82.1821 77.5938 89.1781Z" fill="#00C0C0"/>
</svg>
