<svg width="50" height="50" viewBox="0 0 50 50" fill="none" xmlns="http://www.w3.org/2000/svg">
<path d="M28.125 31.25C23.112 31.25 18.6523 30.8105 14.7461 29.9316C10.8398 29.0527 8.26823 27.946 7.03125 26.6113C11.4583 27.6204 16.4062 28.125 21.875 28.125C25.8789 28.125 29.6794 27.8483 33.2764 27.2949C36.8734 26.7415 39.7786 25.9766 41.9922 25C44.2057 24.0234 45.3125 22.9818 45.3125 21.875V18.75H46.875C47.819 18.9453 48.5758 19.3441 49.1455 19.9463C49.7152 20.5485 50 21.1914 50 21.875V25C50 26.1393 49.0234 27.1891 47.0703 28.1494C45.1172 29.1097 42.4642 29.8665 39.1113 30.4199C35.7585 30.9733 32.0964 31.25 28.125 31.25ZM25 18.75C21.8424 18.75 18.9453 18.5791 16.3086 18.2373C13.6719 17.8955 11.5723 17.4886 10.0098 17.0166C8.44727 16.5446 7.12077 16.04 6.03027 15.5029C4.93978 14.9658 4.18294 14.502 3.75977 14.1113C3.33659 13.7207 3.125 13.444 3.125 13.2812V11.377C4.78516 12.6139 7.64974 13.6312 11.7188 14.4287C15.7878 15.2262 20.2148 15.625 25 15.625C29.7852 15.625 34.2122 15.2262 38.2812 14.4287C42.3503 13.6312 45.2148 12.6139 46.875 11.377V12.5C46.875 13.6068 45.8984 14.6403 43.9453 15.6006C41.9922 16.5609 39.3392 17.3258 35.9863 17.8955C32.6335 18.4652 28.9714 18.75 25 18.75ZM25 12.5C21.0286 12.5 17.3665 12.2152 14.0137 11.6455C10.6608 11.0758 8.00781 10.3109 6.05469 9.35059C4.10156 8.3903 3.125 7.34863 3.125 6.22559C3.125 5.10254 4.10156 4.06087 6.05469 3.10059C8.00781 2.1403 10.6608 1.38346 14.0137 0.830078C17.3665 0.276693 21.0286 0 25 0C28.9714 0 32.6335 0.276693 35.9863 0.830078C39.3392 1.38346 41.9922 2.1403 43.9453 3.10059C45.8984 4.06087 46.875 5.10254 46.875 6.22559C46.875 7.34863 45.8984 8.3903 43.9453 9.35059C41.9922 10.3109 39.3392 11.0758 35.9863 11.6455C32.6335 12.2152 28.9714 12.5 25 12.5ZM1.5625 15.625C1.5625 16.7318 2.66927 17.7734 4.88281 18.75C7.09635 19.7266 10.0016 20.4915 13.5986 21.0449C17.1956 21.5983 20.9961 21.875 25 21.875C28.6458 21.875 32.1289 21.639 35.4492 21.167C38.7695 20.695 41.5365 20.0521 43.75 19.2383C43.7174 19.3034 43.6605 19.4092 43.5791 19.5557C43.4977 19.7021 43.2454 19.9707 42.8223 20.3613C42.3991 20.752 41.8864 21.1263 41.2842 21.4844C40.682 21.8424 39.8031 22.2493 38.6475 22.7051C37.4919 23.1608 36.1898 23.5433 34.7412 23.8525C33.2926 24.1618 31.4453 24.4303 29.1992 24.6582C26.9531 24.8861 24.5117 25 21.875 25C17.9036 25 14.2415 24.7152 10.8887 24.1455C7.53581 23.5758 4.88281 22.8109 2.92969 21.8506C0.976562 20.8903 0 19.8568 0 18.75V15.625C0 14.8438 0.520833 14.0788 1.5625 13.3301V15.625ZM1.5625 32.0801V34.375C1.5625 35.4818 2.66927 36.5234 4.88281 37.5C7.09635 38.4766 10.0016 39.2415 13.5986 39.7949C17.1956 40.3483 20.9961 40.625 25 40.625C28.5807 40.625 32.0231 40.3971 35.3271 39.9414C38.6312 39.4857 41.4062 38.8509 43.6523 38.0371C43.1641 39.6647 40.8366 41.0238 36.6699 42.1143C32.5033 43.2048 27.5716 43.75 21.875 43.75C17.9036 43.75 14.2415 43.4733 10.8887 42.9199C7.53581 42.3665 4.88281 41.6097 2.92969 40.6494C0.976562 39.6891 0 38.6393 0 37.5V34.375C0 33.5938 0.520833 32.8288 1.5625 32.0801ZM28.125 34.375C31.7383 34.375 35.1969 34.139 38.501 33.667C41.805 33.195 44.5638 32.5521 46.7773 31.7383C46.3216 33.3659 44.0104 34.7331 39.8438 35.8398C35.6771 36.9466 30.7292 37.5 25 37.5C21.0286 37.5 17.3665 37.2233 14.0137 36.6699C10.6608 36.1165 8.00781 35.3597 6.05469 34.3994C4.10156 33.4391 3.125 32.3893 3.125 31.25V28.125C3.125 27.4089 3.59701 26.6764 4.54102 25.9277C5.0293 26.0905 5.45247 26.2207 5.81055 26.3184C5.19206 26.9368 4.88281 27.5391 4.88281 28.125C4.88281 29.2318 5.97331 30.2734 8.1543 31.25C10.3353 32.2266 13.2161 32.9915 16.7969 33.5449C20.3776 34.0983 24.1536 34.375 28.125 34.375ZM45.3125 40.625V38.3301C46.3542 39.0788 46.875 39.8438 46.875 40.625V43.75C46.875 44.8893 45.8984 45.9391 43.9453 46.8994C41.9922 47.8597 39.3392 48.6165 35.9863 49.1699C32.6335 49.7233 28.9714 50 25 50C19.2708 50 14.3229 49.4466 10.1562 48.3398C5.98958 47.2331 3.67839 45.8659 3.22266 44.2383C5.4362 45.0521 8.19499 45.695 11.499 46.167C14.8031 46.639 18.2617 46.875 21.875 46.875C25.8789 46.875 29.6794 46.5983 33.2764 46.0449C36.8734 45.4915 39.7786 44.7266 41.9922 43.75C44.2057 42.7734 45.3125 41.7318 45.3125 40.625Z" fill="#00C0C0"/>
</svg>
