<svg width="146" height="35" viewBox="0 0 146 35" fill="none" xmlns="http://www.w3.org/2000/svg">
<path fill-rule="evenodd" clip-rule="evenodd" d="M14.7246 0H32.602L32.5999 26.7318C32.5999 30.8619 29.5604 34.4821 25.3999 34.4836L14.7246 34.489V30.676H17.066L20.964 16.1138L21.9105 20.6351L27.004 20.6436L24.6542 3.82977H22.8229C18.8837 3.82977 17.928 7.66571 17.7358 8.23682L14.7246 19.0842V0ZM21.8005 26.7401C21.8005 28.8605 23.4146 30.595 25.3885 30.595C27.3616 30.595 28.9758 28.8605 28.9758 26.7401C28.9758 24.6197 27.3616 22.8851 25.3885 22.8851C23.4146 22.8851 21.8005 24.6197 21.8005 26.7401Z" fill="#000000"/>
<path fill-rule="evenodd" clip-rule="evenodd" d="M13.8127 19.2156L9.50808 3.89014C6.42244 3.89014 3.5227 5.73462 3.10337 8.92548L0 30.6342C2.93592 30.6342 5.84916 28.8629 6.27771 25.8147L7.51934 16.1451L11.4103 30.676H13.8127V19.2156Z" fill="#000000"/>
<path fill-rule="evenodd" clip-rule="evenodd" d="M122.549 30.3711V3.5249H128.209L139.529 20.5468V9.18231C139.529 5.9671 142.2 3.5249 145.188 3.5249V30.3711H139.529L128.209 13.382V24.7098C128.209 27.8733 125.534 30.387 122.562 30.3711H122.549Z" fill="#000000"/>
<line x1="75.8445" y1="9.67676" x2="75.8445" y2="3.59532" stroke="#000000" stroke-width="0.5669"/>
<path fill-rule="evenodd" clip-rule="evenodd" d="M77.1316 3.5957H66.9084C63.8986 3.5957 61.668 6.44885 61.668 9.67706H77.1316V3.5957Z" fill="#000000"/>
<path fill-rule="evenodd" clip-rule="evenodd" d="M77.1118 13.9434H61.668V20.0247H71.8444C74.7995 20.0247 77.1302 17.1448 77.1118 13.9434Z" fill="#000000"/>
<path fill-rule="evenodd" clip-rule="evenodd" d="M77.1118 24.3599H61.668V30.4421H71.8444C74.8172 30.4421 77.1302 27.5613 77.1118 24.3599Z" fill="#000000"/>
<path fill-rule="evenodd" clip-rule="evenodd" d="M81.1707 3.5249L74.9277 3.59589L84.648 30.4419H86.7729C89.0128 30.4419 90.8583 28.7806 91.6515 26.7288L100.027 3.59589H93.7743L87.4774 21.5555L81.1707 3.5249Z" fill="#000000"/>
<path fill-rule="evenodd" clip-rule="evenodd" d="M101.329 30.4412L95.0869 30.3711L103.58 6.91412C104.3 4.85773 106.21 3.5249 108.24 3.5249H110.466L120.186 30.3711H113.933L107.637 12.4106L101.329 30.4412Z" fill="#000000"/>
<path fill-rule="evenodd" clip-rule="evenodd" d="M58.883 22.5235C56.2117 29.5281 48.6171 32.7244 42.267 29.8873C35.8609 26.9998 32.6823 19.0582 35.3905 11.9939C38.1143 4.97559 45.6287 1.78992 52.0178 4.62403C58.4189 7.48853 61.5805 15.4769 58.883 22.5235ZM47.1342 24.9114C51.055 24.9114 53.3467 21.3051 53.3467 17.2556C53.3467 13.2573 51.001 9.59974 47.1342 9.59974C43.2256 9.59974 40.9218 13.2191 40.9218 17.2556C40.9218 21.3598 43.1554 24.9114 47.1342 24.9114Z" fill="#000000"/>
</svg>
