<svg width="35" height="35" viewBox="0 0 35 35" fill="none" xmlns="http://www.w3.org/2000/svg">
<path d="M4.375 30.6253L6.78125 25.0836C4.94034 22.4704 4.11639 19.2751 4.46402 16.0975C4.81166 12.9199 6.30698 9.97841 8.66937 7.82501C11.0318 5.67161 14.0988 4.45435 17.2949 4.40169C20.4911 4.34902 23.5965 5.46456 26.0286 7.53896C28.4607 9.61336 30.0521 12.504 30.5042 15.6684C30.9564 18.8329 30.2381 22.0535 28.4843 24.726C26.7305 27.3985 24.0617 29.3391 20.9787 30.1836C17.8957 31.0281 14.6105 30.7185 11.7396 29.3128L4.375 30.6253" stroke="black" stroke-width="3.49632" stroke-linecap="round" stroke-linejoin="round"/>
<path d="M13.125 14.5835C13.125 14.7769 13.2018 14.9624 13.3386 15.0991C13.4753 15.2358 13.6608 15.3127 13.8542 15.3127C14.0476 15.3127 14.233 15.2358 14.3698 15.0991C14.5065 14.9624 14.5833 14.7769 14.5833 14.5835V13.1252C14.5833 12.9318 14.5065 12.7463 14.3698 12.6096C14.233 12.4728 14.0476 12.396 13.8542 12.396C13.6608 12.396 13.4753 12.4728 13.3386 12.6096C13.2018 12.7463 13.125 12.9318 13.125 13.1252V14.5835ZM13.125 14.5835C13.125 16.5174 13.8932 18.372 15.2607 19.7395C16.6281 21.1069 18.4828 21.8752 20.4167 21.8752H21.875C22.0684 21.8752 22.2539 21.7983 22.3906 21.6616C22.5273 21.5249 22.6042 21.3394 22.6042 21.146C22.6042 20.9526 22.5273 20.7671 22.3906 20.6304C22.2539 20.4937 22.0684 20.4168 21.875 20.4168H20.4167C20.2233 20.4168 20.0378 20.4937 19.9011 20.6304C19.7643 20.7671 19.6875 20.9526 19.6875 21.146C19.6875 21.3394 19.7643 21.5249 19.9011 21.6616C20.0378 21.7983 20.2233 21.8752 20.4167 21.8752" stroke="black" stroke-width="3.49632" stroke-linecap="round" stroke-linejoin="round"/>
</svg>
