<svg width="55" height="40" viewBox="0 0 55 40" fill="none" xmlns="http://www.w3.org/2000/svg">
<path d="M36.3628 20C34.0264 20 31.7674 18.9568 29.9992 17.0636C28.2799 15.217 27.2299 12.7545 27.0446 10.1318C26.8469 7.33408 27.7003 4.76136 29.4469 2.88636C31.1935 1.01136 33.6355 0 36.3628 0C39.0708 0 41.5196 1.02954 43.2605 2.9C45.0185 4.78863 45.8742 7.35681 45.6764 10.1307C45.4867 12.7568 44.4378 15.2182 42.7219 17.0625C40.9582 18.9568 38.7003 20 36.3628 20Z" fill="#00C0C0"/>
<path d="M51.3438 39.9998H21.3836C20.902 40.0024 20.4261 39.8945 19.9927 39.6843C19.5593 39.474 19.1799 39.1672 18.8836 38.7873C18.5694 38.3756 18.3525 37.898 18.249 37.3905C18.1454 36.883 18.1581 36.3586 18.2859 35.8567C19.2427 32.0146 21.6132 28.8283 25.1405 26.643C28.2711 24.7044 32.2564 23.6362 36.3632 23.6362C40.5507 23.6362 44.4314 24.659 47.5802 26.5965C51.1154 28.7703 53.4893 31.9749 54.4416 35.8635C54.5679 36.3658 54.5791 36.8902 54.4744 37.3974C54.3697 37.9047 54.1519 38.3817 53.837 38.793C53.5411 39.1711 53.1626 39.4765 52.7304 39.6856C52.2983 39.8948 51.824 40.0023 51.3438 39.9998Z" fill="#00C0C0"/>
<path d="M14.8854 20.4544C10.8865 20.4544 7.37062 16.7362 7.04449 12.1669C6.88312 9.826 7.61267 7.66123 9.08994 6.07373C10.5513 4.50214 12.6127 3.63623 14.8854 3.63623C17.1581 3.63623 19.2036 4.50668 20.6729 6.08736C22.1615 7.68736 22.8888 9.84759 22.7183 12.1692C22.3922 16.7374 18.8774 20.4544 14.8854 20.4544Z" fill="#00C0C0"/>
<path d="M22.3476 24.0284C20.3487 23.0511 17.7544 22.5625 14.8874 22.5625C11.5396 22.5625 8.2885 23.4352 5.73168 25.0193C2.83282 26.8182 0.882824 29.4375 0.0953252 32.6C-0.0199189 33.0549 -0.0308189 33.5299 0.0634404 33.9896C0.1577 34.4493 0.354678 34.8817 0.639643 35.2545C0.910038 35.6017 1.25644 35.8821 1.65222 36.0744C2.04799 36.2667 2.48259 36.3656 2.9226 36.3636H15.5362C15.7491 36.3636 15.9552 36.2888 16.1187 36.1524C16.2821 36.016 16.3925 35.8265 16.4305 35.617C16.443 35.5454 16.4589 35.4738 16.4771 35.4034C17.4408 31.5329 19.6987 28.2625 23.0351 25.8784C23.1578 25.79 23.2565 25.6723 23.3222 25.536C23.388 25.3998 23.4187 25.2493 23.4116 25.0982C23.4045 24.9471 23.3598 24.8002 23.2815 24.6707C23.2033 24.5412 23.094 24.4334 22.9635 24.3568C22.7851 24.2523 22.5805 24.142 22.3476 24.0284Z" fill="#00C0C0"/>
</svg>
