<svg width="30" height="24" viewBox="0 0 30 24" fill="none" xmlns="http://www.w3.org/2000/svg">
<path d="M0 3.00003C0 2.20437 0.316074 1.4413 0.878689 0.878689C1.4413 0.316074 2.20437 0 3.00003 0H16.5002C17.2958 0 18.0589 0.316074 18.6215 0.878689C19.1841 1.4413 19.5002 2.20437 19.5002 3.00003V6.00006C19.5002 6.39789 19.3422 6.77943 19.0609 7.06074C18.7796 7.34204 18.398 7.50008 18.0002 7.50008C17.6024 7.50008 17.2208 7.34204 16.9395 7.06074C16.6582 6.77943 16.5002 6.39789 16.5002 6.00006V3.00003H3.00003V21.0002H16.5002V18.0002C16.5002 17.6024 16.6582 17.2208 16.9395 16.9395C17.2208 16.6582 17.6024 16.5002 18.0002 16.5002C18.398 16.5002 18.7796 16.6582 19.0609 16.9395C19.3422 17.2208 19.5002 17.6024 19.5002 18.0002V21.0002C19.5002 21.7959 19.1841 22.559 18.6215 23.1216C18.0589 23.6842 17.2958 24.0003 16.5002 24.0003H3.00003C2.20437 24.0003 1.4413 23.6842 0.878689 23.1216C0.316074 22.559 0 21.7959 0 21.0002V3.00003ZM22.9397 6.43957C23.221 6.15836 23.6025 6.00038 24.0003 6.00038C24.398 6.00038 24.7795 6.15836 25.0608 6.43957L29.5608 10.9396C29.842 11.2209 30 11.6024 30 12.0001C30 12.3979 29.842 12.7793 29.5608 13.0606L25.0608 17.5607C24.7779 17.8339 24.399 17.9851 24.0057 17.9817C23.6124 17.9783 23.2361 17.8205 22.958 17.5424C22.6799 17.2643 22.5221 16.8881 22.5187 16.4948C22.5153 16.1015 22.6665 15.7226 22.9397 15.4397L24.8793 13.5001H10.5001C10.1023 13.5001 9.72075 13.3421 9.43944 13.0608C9.15813 12.7795 9.0001 12.398 9.0001 12.0001C9.0001 11.6023 9.15813 11.2208 9.43944 10.9395C9.72075 10.6581 10.1023 10.5001 10.5001 10.5001H24.8793L22.9397 8.56059C22.6585 8.2793 22.5006 7.89783 22.5006 7.50008C22.5006 7.10233 22.6585 6.72086 22.9397 6.43957Z" fill="#ffffcc"/>
</svg>
