<svg width="72" height="72" viewBox="0 0 72 72" fill="none" xmlns="http://www.w3.org/2000/svg">
<path d="M62.2683 55.5967C62.2683 52.6479 61.0986 49.8191 59.0126 47.7331C56.9266 45.6472 54.0978 44.4774 51.149 44.4774C42.0178 44.4774 29.146 44.4774 20.0148 44.4774C17.066 44.4774 14.2372 45.6472 12.1512 47.7331C10.0652 49.8191 8.89548 52.6479 8.89548 55.5967V66.7161H62.2683C62.2683 66.7161 62.2683 62.9222 62.2683 55.5967ZM53.3729 26.6864H62.2683C64.6256 26.6864 66.8895 27.6249 68.5574 29.2928C70.2253 30.9607 71.1638 33.2246 71.1638 35.5819V48.9251H65.2172C62.7176 43.6679 57.358 40.0297 51.149 40.0297H47.3462C51.0423 36.7695 53.3729 31.997 53.3729 26.6864ZM5.94663 48.9251H0C0 48.9251 0 41.7732 0 35.5819C0 33.2246 0.938473 30.9607 2.60637 29.2928C4.27428 27.6249 6.53818 26.6864 8.89548 26.6864H17.791C17.791 31.997 20.1216 36.7695 23.8176 40.0297H20.0148C13.8058 40.0297 8.44626 43.6635 5.94663 48.9251ZM35.5819 13.3432C42.9474 13.3432 48.9251 19.321 48.9251 26.6864C48.9251 34.0519 42.9474 40.0297 35.5819 40.0297C28.2165 40.0297 22.2387 34.0519 22.2387 26.6864C22.2387 19.321 28.2165 13.3432 35.5819 13.3432ZM18.3558 22.2209C18.169 22.2343 17.9822 22.2387 17.791 22.2387C12.8807 22.2387 8.89548 18.2535 8.89548 13.3432C8.89548 8.43293 12.8807 4.44775 17.791 4.44775C22.0341 4.44775 25.5878 7.42774 26.4729 11.404C22.51 13.7747 19.5434 17.6397 18.3558 22.2209ZM44.6909 11.404C45.576 7.42774 49.1297 4.44775 53.3729 4.44775C58.2832 4.44775 62.2683 8.43293 62.2683 13.3432C62.2683 18.2535 58.2832 22.2387 53.3729 22.2387C53.1816 22.2387 52.9948 22.2343 52.808 22.2209C51.6205 17.6397 48.6538 13.7747 44.6909 11.404Z" fill="black"/>
</svg>
