<svg width="58" height="58" viewBox="0 0 58 58" fill="none" xmlns="http://www.w3.org/2000/svg">
<path d="M34 4H24C22.6193 4 21.5 5.11929 21.5 6.5V16.5C21.5 17.8807 22.6193 19 24 19H34C35.3807 19 36.5 17.8807 36.5 16.5V6.5C36.5 5.11929 35.3807 4 34 4Z" stroke="#00C0C0" stroke-width="7.40755" stroke-linecap="round" stroke-linejoin="round"/>
<path d="M9 44V34C9 32.6193 10.1193 31.5 11.5 31.5H46.5C47.8808 31.5 49 32.6193 49 34V44" stroke="#00C0C0" stroke-width="7.40755" stroke-linecap="round" stroke-linejoin="round"/>
<path d="M9 54C11.7614 54 14 51.7614 14 49C14 46.2386 11.7614 44 9 44C6.23858 44 4 46.2386 4 49C4 51.7614 6.23858 54 9 54Z" stroke="#00C0C0" stroke-width="7.40755" stroke-linecap="round" stroke-linejoin="round"/>
<path d="M49 54C51.7614 54 54 51.7614 54 49C54 46.2386 51.7614 44 49 44C46.2386 44 44 46.2386 44 49C44 51.7614 46.2386 54 49 54Z" stroke="#00C0C0" stroke-width="7.40755" stroke-linecap="round" stroke-linejoin="round"/>
<path d="M29 54C31.7614 54 34 51.7614 34 49C34 46.2386 31.7614 44 29 44C26.2386 44 24 46.2386 24 49C24 51.7614 26.2386 54 29 54Z" stroke="#00C0C0" stroke-width="7.40755" stroke-linecap="round" stroke-linejoin="round"/>
<path d="M29 19V44" stroke="#00C0C0" stroke-width="7.40755" stroke-linecap="round" stroke-linejoin="round"/>
</svg>
