<svg width="72" height="50" viewBox="0 0 72 50" fill="none" xmlns="http://www.w3.org/2000/svg">
<path d="M42.8571 32.1429V39.2857H53.5714V50H60.7143V39.2857H71.4286V32.1429H60.7143V21.4286H53.5714V32.1429M42.75 20.0357C42.3214 15.2857 37.8214 10.6071 32.1429 10.7143C26.0714 10.8214 21.4286 15.3571 21.4286 21.4286C21.4286 27.5 26.0714 31.9286 32.1429 32.1429C33.5 32.1429 34.8929 31.8571 36.2143 31.3214C37.1786 27.3929 38.7857 23.6786 42.75 20.0357ZM35.7143 35.7143H14.2857C14.2857 31.7857 11.1071 28.5714 7.14286 28.5714V14.2857C11.1071 14.2857 14.2857 11.1071 14.2857 7.14286H50C50 11.1071 53.2143 14.2857 57.1429 14.2857V14.5C59.5357 14.5 61.9286 14.9286 64.2857 15.7143V0H0V42.8571H36.8571C36.0714 40.4643 35.7143 38.0714 35.7143 35.7143Z" fill="black"/>
</svg>
