<svg width="55" height="79" viewBox="0 0 55 79" fill="none" xmlns="http://www.w3.org/2000/svg">
<path fill-rule="evenodd" clip-rule="evenodd" d="M6.03013 43.7743C7.92075 46.0843 12.7291 54.6417 13.75 58.9286H41.25C42.271 54.6451 47.0737 46.0877 48.9643 43.781C52.2032 39.8194 54.2337 35.0421 54.822 29.9996C55.4105 24.9569 54.5327 19.8538 52.2901 15.2786C50.0474 10.7032 46.531 6.84159 42.1459 4.1385C37.7608 1.4354 32.6853 0.000805697 27.5043 3.39279e-07C22.3233 -0.000805018 17.2476 1.43218 12.8615 4.1339C8.47567 6.83562 4.95782 10.6962 2.71382 15.2708C0.469624 19.8454 -0.409846 24.948 0.176946 29.9909C0.763678 35.0338 2.79259 39.8118 6.03013 43.7743ZM29.4643 15.7143L17.6785 33.3929H25.5357V45.1786L37.3214 27.5H29.4643V15.7143Z" fill="black"/>
<path d="M13.75 64.8212C13.75 63.7363 14.6294 62.8569 15.7143 62.8569H39.2857C40.3706 62.8569 41.25 63.7363 41.25 64.8212C41.25 65.9061 40.3706 66.7855 39.2857 66.7855H15.7143C14.6294 66.7855 13.75 65.9061 13.75 64.8212Z" fill="black"/>
<path d="M41.25 70.7144H13.75V74.6429C13.75 76.8127 15.5088 78.5715 17.6786 78.5715H37.3214C39.4912 78.5715 41.25 76.8127 41.25 74.6429V70.7144Z" fill="black"/>
</svg>
