<?xml version="1.0" encoding="UTF-8"?>
<!DOCTYPE svg PUBLIC "-//W3C//DTD SVG 1.1//EN" "http://www.w3.org/Graphics/SVG/1.1/DTD/svg11.dtd">
<!-- Creator: CorelDRAW -->
<svg xmlns="http://www.w3.org/2000/svg" xml:space="preserve" width="113px" height="134px" version="1.1" style="shape-rendering:geometricPrecision; text-rendering:geometricPrecision; image-rendering:optimizeQuality; fill-rule:evenodd; clip-rule:evenodd"
viewBox="0 0 3.93 4.69"
 xmlns:xlink="http://www.w3.org/1999/xlink"
 xmlns:xodm="http://www.corel.com/coreldraw/odm/2003">
 <defs>
  <style type="text/css">
   <![CDATA[
    .fil0 {fill:black}
   ]]>
  </style>
 </defs>
 <g id="Layer_x0020_1">
  <metadata id="CorelCorpID_0Corel-Layer"/>
  <path class="fil0" d="M2.91 3.63l-0.02 0c0,-0.04 0,-0.29 0,-0.31l0.25 0c0.03,0 0.03,0 0.03,0.07 0,0.13 -0.1,0.24 -0.26,0.24zm-2.9 -2.02c0.03,-1.7 2.4,-1.78 2.35,-0.11l-0.24 0 0.48 0.48 0.49 -0.48 -0.24 0c-0.06,-2.1 -3.01,-1.93 -2.84,0.11zm3.92 -0.12c0,-0.01 0,0 0,-0.01 0,0 0.03,-0.36 -0.35,-0.35 -0.26,0 -0.63,-0.01 -0.63,-0.02l0.02 0.17c0,0 0.32,-0.02 0.61,0.01 0.23,0.01 0.2,0.19 0.2,0.24 0,0.09 0.01,2.07 -0.02,2.14 -0.01,0.03 -0.02,0.06 -0.04,0.08l-0.75 0.74c-0.07,0.05 -0.13,0.04 -0.22,0.04l-1.13 0c-0.06,-0.01 -0.1,-0.04 -0.12,-0.09l0 -3.04c0,-0.04 0.02,-0.07 0.05,-0.09 0.02,-0.01 0.07,-0.03 0.11,-0.03 0.19,0 0.37,0 0.56,0l-0.05 -0.15 -0.39 0c-0.15,0 -0.26,-0.01 -0.37,0.11 -0.04,0.04 -0.06,0.11 -0.07,0.16l0 2.96c0,0.02 -0.01,0.02 0,0.07 0.03,0.14 0.13,0.23 0.28,0.25l1.22 0.01c0.08,-0.01 0.16,-0.03 0.24,-0.09l0.76 -0.76c0.02,-0.03 0.05,-0.08 0.06,-0.11 0.02,-0.06 0.03,-0.11 0.03,-0.16l0 -2.08zm-1.91 1.83l0.27 0 0 0.31c-0.23,0 -0.27,-0.12 -0.27,-0.31zm0.87 -0.4l0.28 0 0 0.25 -0.28 0 0 -0.25zm-0.87 0c0.02,-0.01 0.26,-0.01 0.27,0l0 0.25 -0.27 0 0 -0.25zm0.87 -0.52c0.11,-0.01 0.18,0 0.23,0.1 0.05,0.08 0.05,0.17 0.05,0.27l-0.28 0 0 -0.37zm-0.76 0.03c0.09,-0.06 0.25,-0.03 0.36,-0.03 0.09,0 0.18,0 0.27,0 -0.01,0.03 0,1.08 0,1.23l-0.33 0 0 -0.77c0,-0.1 -0.07,-0.09 -0.16,-0.09 -0.05,0 -0.21,0.01 -0.25,0 0,-0.12 -0.02,-0.25 0.11,-0.34zm-0.23 0.2l0 0.76c0,0.19 0.13,0.39 0.36,0.39l0.67 0c0.23,0 0.36,-0.2 0.36,-0.38l0 -0.77c0,-0.09 -0.02,-0.14 -0.06,-0.22 0,0 0,0 0,0 -0.01,0 -0.01,0 -0.01,-0.01 -0.06,-0.08 -0.16,-0.15 -0.27,-0.15l-0.71 0c-0.22,0 -0.34,0.22 -0.34,0.38z"/>
 </g>
</svg>
