<?xml version="1.0" encoding="UTF-8"?>
<!DOCTYPE svg PUBLIC "-//W3C//DTD SVG 1.1//EN" "http://www.w3.org/Graphics/SVG/1.1/DTD/svg11.dtd">
<!-- Creator: CorelDRAW -->
<svg xmlns="http://www.w3.org/2000/svg" xml:space="preserve" width="98px" height="118px" version="1.1" style="shape-rendering:geometricPrecision; text-rendering:geometricPrecision; image-rendering:optimizeQuality; fill-rule:evenodd; clip-rule:evenodd"
viewBox="0 0 3.04 3.64"
 xmlns:xlink="http://www.w3.org/1999/xlink"
 xmlns:xodm="http://www.corel.com/coreldraw/odm/2003">
 <defs>
  <style type="text/css">
   <![CDATA[
    .fil0 {fill:black}
    .fil1 {fill:black;fill-rule:nonzero}
   ]]>
  </style>
 </defs>
 <g id="Layer_x0020_1">
  <metadata id="CorelCorpID_0Corel-Layer"/>
  <g id="_1254948360464">
   <path class="fil0" d="M2.31 3.32l0 -0.16 -2.19 0c0,0.14 -0.03,0.36 0.2,0.36l1.79 0c0.12,0 0.2,-0.08 0.2,-0.2zm0.3 -0.85c-0.02,-0.04 -0.05,-0.07 -0.08,-0.09 -0.03,0.02 -0.05,0.03 -0.08,0.05 -0.1,0.06 -0.2,0.1 -0.32,0.11l0 0.13c0.09,-0.02 0.14,-0.01 0.27,-0.07 0.04,-0.01 0.08,-0.04 0.11,-0.06 0.03,-0.01 0.08,-0.05 0.1,-0.07zm-0.61 0.2l0 -0.13c-0.18,-0.01 -0.28,-0.08 -0.41,-0.16l-0.08 0.08 0.1 0.08c0.09,0.06 0.21,0.1 0.31,0.12 0.03,0.01 0.06,0.01 0.08,0.01zm-0.58 -0.29l0.09 -0.09c-0.05,-0.07 -0.06,-0.08 -0.11,-0.18 -0.02,-0.03 -0.03,-0.06 -0.04,-0.1 -0.01,-0.05 -0.01,-0.08 -0.02,-0.13l-0.06 0c0,0.23 -0.03,0.26 0.09,0.43 0.02,0.02 0.04,0.05 0.05,0.07zm1.49 -0.5l-0.12 0c0,0.11 -0.05,0.23 -0.1,0.32l-0.06 0.08 0.08 0.09c0.09,-0.06 0.17,-0.28 0.19,-0.41 0.01,-0.03 0.01,-0.06 0.01,-0.08zm-0.24 -0.06c0,-0.41 -0.41,-0.75 -0.86,-0.56 -0.07,0.03 -0.13,0.08 -0.18,0.13 -0.05,0.06 -0.08,0.11 -0.12,0.18 -0.05,0.12 -0.06,0.24 -0.04,0.37 0.03,0.1 0.08,0.21 0.15,0.29 0.05,0.05 0.1,0.08 0.17,0.12 0.3,0.17 0.77,0.01 0.86,-0.4 0.01,-0.03 0.02,-0.1 0.02,-0.13zm-1.17 -0.48l-0.08 -0.07c-0.01,0.02 -0.03,0.03 -0.04,0.05 -0.13,0.18 -0.1,0.22 -0.1,0.44l0.06 0c0,-0.12 0.06,-0.28 0.13,-0.37l0.03 -0.05zm1.29 0.42l0.12 0c0,-0.03 0,-0.04 -0.01,-0.07 -0.03,-0.2 -0.1,-0.28 -0.19,-0.42l-0.08 0.08c0.02,0.02 0.04,0.05 0.06,0.08 0.05,0.08 0.1,0.22 0.1,0.33zm-0.79 -0.79c-0.11,0.03 -0.12,0.01 -0.27,0.07 -0.11,0.05 -0.14,0.08 -0.22,0.14l0.07 0.07c0.03,0 0.21,-0.16 0.42,-0.16l0 -0.12zm0.54 0.28c0.01,0 0.06,-0.06 0.07,-0.07 -0.04,-0.07 -0.25,-0.16 -0.34,-0.18 -0.05,-0.02 -0.1,-0.02 -0.14,-0.03l0 0.12c0.11,0 0.23,0.05 0.32,0.1 0.03,0.02 0.07,0.06 0.09,0.06zm-1.26 0l0.03 -0.04c0.03,-0.04 0.09,-0.1 0.14,-0.14 0.19,-0.16 0.39,-0.22 0.66,-0.22 0.05,0 0.17,0.02 0.2,0.03l0 -0.27 -2.19 0 0 2.43 2.19 0 0 -0.28c-0.06,0.03 -0.2,0.03 -0.28,0.03 -0.23,0 -0.46,-0.11 -0.61,-0.25 -0.07,-0.06 -0.06,-0.04 -0.13,-0.13 0,-0.01 -0.01,-0.01 -0.01,-0.02l0 0.52 -0.13 0 0 -2.18 0.13 0 0 0.52zm1.03 -0.93c0,-0.12 -0.08,-0.2 -0.2,-0.2l-1.79 0c-0.23,0 -0.2,0.22 -0.2,0.37l2.19 0 0 -0.17zm0.12 0.6c0.02,0.01 0.04,0.02 0.06,0.03 0.05,0.02 0.13,0.07 0.17,0.11 0.52,0.41 0.48,1.17 0,1.53 -0.14,0.1 -0.11,0.07 -0.23,0.13 0,0.2 0,0.4 0,0.6 0,0.11 -0.03,0.17 -0.08,0.22 -0.05,0.05 -0.11,0.1 -0.2,0.1l-1.87 0c-0.14,0 -0.28,-0.14 -0.28,-0.28l0 -3.08c0,-0.14 0.14,-0.28 0.28,-0.28l1.87 0c0.09,0 0.15,0.05 0.2,0.1 0.05,0.05 0.08,0.11 0.08,0.22 0,0.2 0,0.4 0,0.6z"/>
   <polygon class="fil0" points="1.46,0.36 0.97,0.36 0.97,0.24 1.46,0.24 "/>
   <polygon class="fil0" points="1.46,3.4 0.97,3.4 0.97,3.28 1.46,3.28 "/>
  </g>
  <path class="fil1" d="M1.75 2.23l0 -0.24 -0.08 0 0 -0.1 0.08 0 0 -0.15 -0.08 0 0 -0.1 0.08 0 0 -0.25 0.11 0 0.17 0.25 0.27 0 0 -0.25 0.11 0 0 0.25 0.07 0 0 0.1 -0.07 0 0 0.15 0.07 0 0 0.1 -0.07 0 0 0.24 -0.11 0 -0.16 -0.24 -0.29 0 0 0.24 -0.1 0zm0.34 -0.49l0.11 0.15 0.1 0 0 -0.15 -0.21 0zm0.17 0.25l0.04 0.06 0 -0.06 -0.04 0zm-0.19 -0.1l-0.11 -0.15 -0.11 0 0 0.15 0.22 0zm-0.17 -0.25l-0.05 -0.07 0 0.07 0.05 0z"/>
 </g>
</svg>
