<?xml version="1.0" encoding="UTF-8"?>
<!DOCTYPE svg PUBLIC "-//W3C//DTD SVG 1.1//EN" "http://www.w3.org/Graphics/SVG/1.1/DTD/svg11.dtd">
<!-- Creator: CorelDRAW -->
<svg xmlns="http://www.w3.org/2000/svg" xml:space="preserve" width="117px" height="116px" version="1.1" style="shape-rendering:geometricPrecision; text-rendering:geometricPrecision; image-rendering:optimizeQuality; fill-rule:evenodd; clip-rule:evenodd"
viewBox="0 0 4.22 4.2"
 xmlns:xlink="http://www.w3.org/1999/xlink"
 xmlns:xodm="http://www.corel.com/coreldraw/odm/2003">
 <defs>
  <style type="text/css">
   <![CDATA[
    .fil0 {fill:black;fill-rule:nonzero}
   ]]>
  </style>
 </defs>
 <g id="Layer_x0020_1">
  <metadata id="CorelCorpID_0Corel-Layer"/>
  <path class="fil0" d="M0.32 0l3.59 0c0.17,0 0.31,0.14 0.31,0.32l0 2.06c0,0.18 -0.14,0.32 -0.31,0.32l-0.98 0 0 1.22c0,0.16 -0.12,0.28 -0.27,0.28l-1.12 0c-0.15,0 -0.28,-0.12 -0.28,-0.28l0 -1.22 -0.94 0c-0.18,0 -0.32,-0.14 -0.32,-0.32l0 -2.06c0,-0.18 0.14,-0.32 0.32,-0.32zm2.88 3.59l0.12 -0.12 -0.12 -0.13 -0.13 0.13 0.13 0.12zm0.23 -0.23l0.12 -0.12 -0.12 -0.13 -0.13 0.13 0.13 0.12zm0.23 -0.23l0.12 -0.12 -0.12 -0.13 -0.13 0.13 0.13 0.12zm-3.12 -0.25l0.13 0.12 -0.13 0.13 -0.12 -0.13 0.12 -0.12zm0.23 0.23l0.13 0.12 -0.13 0.13 -0.12 -0.13 0.12 -0.12zm0.23 0.22l0.13 0.13 -0.13 0.13 -0.13 -0.13 0.13 -0.13zm0.68 -0.32l0.18 0 0 0.18 -0.18 0 0 -0.18zm0.33 0l0.18 0 0 0.18 -0.18 0 0 -0.18zm0.32 0l0.18 0 0 0.18 -0.18 0 0 -0.18zm0.22 -1.35l0 0.16c0,0.11 -0.09,0.19 -0.19,0.19l-0.52 0c-0.11,0 -0.2,-0.08 -0.2,-0.19l0 -0.16 -0.1 0c-0.07,0 -0.12,0.06 -0.12,0.12l0 0.77 0 0.15 0 1.22c0,0.07 0.05,0.13 0.12,0.13l1.12 0c0.06,0 0.12,-0.06 0.12,-0.13l0 -1.22 0 -0.15 0 -0.77c0,-0.06 -0.06,-0.12 -0.12,-0.12l-0.11 0zm-0.75 0l0 0.16c0,0.02 0.02,0.04 0.04,0.04l0.52 0c0.02,0 0.04,-0.02 0.04,-0.04l0 -0.16 -0.6 0zm-1.64 0.66l1.05 -1.12 -1.05 -0.82 0 1.94zm1.17 -1.02l-1.13 1.2c0.03,0.03 0.07,0.05 0.12,0.05l0.94 0 0 -0.77c0,-0.15 0.13,-0.27 0.28,-0.27l1.12 0c0.15,0 0.27,0.12 0.27,0.27l0 0.77 0.98 0c0.05,0 0.1,-0.03 0.13,-0.07l-1.17 -1.2 -0.2 0.13 -1.21 -0.01 -0.13 -0.1zm1.66 -0.11l1.08 1.1 0 -1.91 -1.08 0.81zm-2.8 -0.98l1.34 1.05 1.11 0 1.39 -1.05c-0.03,-0.03 -0.07,-0.05 -0.12,-0.05l-3.59 0c-0.05,0 -0.09,0.02 -0.13,0.05z"/>
 </g>
</svg>
