<?xml version="1.0" encoding="UTF-8"?>
<!DOCTYPE svg PUBLIC "-//W3C//DTD SVG 1.1//EN" "http://www.w3.org/Graphics/SVG/1.1/DTD/svg11.dtd">
<!-- Creator: CorelDRAW -->
<svg xmlns="http://www.w3.org/2000/svg" xml:space="preserve" width="103px" height="80px" version="1.1" style="shape-rendering:geometricPrecision; text-rendering:geometricPrecision; image-rendering:optimizeQuality; fill-rule:evenodd; clip-rule:evenodd"
viewBox="0 0 3.3 2.58"
 xmlns:xlink="http://www.w3.org/1999/xlink"
 xmlns:xodm="http://www.corel.com/coreldraw/odm/2003">
 <defs>
  <style type="text/css">
   <![CDATA[
    .fil1 {fill:none}
    .fil0 {fill:black}
   ]]>
  </style>
 </defs>
 <g id="Layer_x0020_1">
  <metadata id="CorelCorpID_0Corel-Layer"/>
  <path class="fil0" d="M0.52 0.34l0.9 0c0.09,-0.03 0.04,-0.12 0.08,-0.16 0.04,-0.05 0.1,-0.01 0.14,0.02l0.48 0.35c0.09,0.07 0.09,0.1 0,0.17l-0.48 0.34c-0.04,0.03 -0.1,0.08 -0.14,0.02 -0.04,-0.04 0.01,-0.13 -0.08,-0.15l-0.9 -0.01 0 -0.58zm1.73 0.12l-0.56 -0.41c-0.16,-0.11 -0.32,-0.03 -0.36,0.13l-0.81 0c-0.07,0 -0.16,0.09 -0.16,0.16l0 0.58c0,0.07 0.09,0.16 0.16,0.16l0.81 0c0.04,0.16 0.2,0.24 0.36,0.14l0.56 -0.42c0.12,-0.09 0.12,-0.24 0,-0.34z"/>
  <rect class="fil1" y="0.63" width="2.5" height="0.68"/>
  <path class="fil0" d="M3.15 1.65l-0.9 0c-0.1,-0.02 -0.05,-0.12 -0.08,-0.16 -0.05,-0.05 -0.11,-0.01 -0.15,0.02l-0.47 0.35c-0.09,0.07 -0.09,0.1 0,0.17l0.47 0.34c0.04,0.03 0.1,0.08 0.15,0.02 0.03,-0.03 -0.02,-0.13 0.08,-0.15l0.9 -0.01 0 -0.58zm-1.73 0.12l0.56 -0.41c0.15,-0.11 0.32,-0.03 0.36,0.13l0.81 0c0.06,0 0.15,0.09 0.15,0.16l0 0.58c0,0.07 -0.09,0.16 -0.15,0.16l-0.81 0c-0.04,0.16 -0.21,0.24 -0.36,0.14l-0.56 -0.42c-0.13,-0.09 -0.13,-0.24 0,-0.34z"/>
 </g>
</svg>
