<?xml version="1.0" encoding="UTF-8"?>
<!DOCTYPE svg PUBLIC "-//W3C//DTD SVG 1.1//EN" "http://www.w3.org/Graphics/SVG/1.1/DTD/svg11.dtd">
<!-- Creator: CorelDRAW -->
<svg xmlns="http://www.w3.org/2000/svg" xml:space="preserve" width="116px" height="139px" version="1.1" style="shape-rendering:geometricPrecision; text-rendering:geometricPrecision; image-rendering:optimizeQuality; fill-rule:evenodd; clip-rule:evenodd"
viewBox="0 0 4.2 5.04"
 xmlns:xlink="http://www.w3.org/1999/xlink"
 xmlns:xodm="http://www.corel.com/coreldraw/odm/2003">
 <defs>
  <style type="text/css">
   <![CDATA[
    .fil0 {fill:black}
   ]]>
  </style>
 </defs>
 <g id="Layer_x0020_1">
  <metadata id="CorelCorpID_0Corel-Layer"/>
  <path class="fil0" d="M0.57 0.21c0.12,0.06 0.09,0.12 0.23,0.01 0.03,-0.02 0.08,-0.06 0.1,-0.08 0.06,0.04 0.16,0.14 0.2,0.14 0.06,0 0.17,-0.11 0.22,-0.14 0.01,0.01 0.15,0.14 0.21,0.14 0.02,0 0.17,-0.12 0.19,-0.14 0.16,0.11 0.18,0.19 0.28,0.11 0.03,-0.03 0.02,-0.02 0.05,-0.04l0 1.33 -1.48 0 0 -1.33zm-0.19 2.77l0.96 0 0 1.33c0,0.2 -0.17,0.39 -0.39,0.39l-0.57 0 0 -0.19 0.12 0 0.21 -0.73 0.05 0.22 0.28 0.01 -0.13 -0.84 -0.1 0c-0.21,0 -0.26,0.19 -0.27,0.22l-0.16 0.54 0 -0.95zm0.38 1.33c0,-0.11 0.08,-0.19 0.19,-0.19 0.1,0 0.19,0.08 0.19,0.19 0,0.1 -0.09,0.19 -0.19,0.19 -0.11,0 -0.19,-0.09 -0.19,-0.19zm1.64 0.07c0,0.1 0.2,0.07 0.36,0.07 0.1,0 0.1,-0.14 0,-0.14 -0.12,0 -0.36,-0.03 -0.36,0.07zm0.55 0c0,0.04 0.03,0.07 0.08,0.07 0.12,0 0.37,0.03 0.36,-0.07 -0.01,-0.1 -0.22,-0.07 -0.36,-0.07 -0.04,0 -0.08,0.03 -0.08,0.07zm0.55 0c0,0.04 0.04,0.07 0.08,0.07 0.13,0 0.37,0.03 0.36,-0.07 -0.01,-0.1 -0.22,-0.07 -0.36,-0.07 -0.03,0 -0.08,0.03 -0.08,0.07zm-1.65 0c0,0.04 0.03,0.07 0.08,0.07 0.12,0 0.37,0.03 0.36,-0.07 -0.02,-0.1 -0.22,-0.07 -0.36,-0.07 -0.04,0 -0.08,0.03 -0.08,0.07zm1.4 -0.56c0,0.04 0.03,0.07 0.07,0.07l0.55 0c0.1,0 0.08,-0.13 0.02,-0.13l-0.59 0c-0.03,0 -0.05,0.04 -0.05,0.06zm-2.48 -2.64c0,0.05 0.02,0.07 0.07,0.07l0.62 0c0.1,0 0.08,-0.12 0.02,-0.12l-0.66 0c-0.03,0 -0.05,0.03 -0.05,0.05zm2.26 2.37c-0.01,0.03 -0.04,0.11 0.09,0.11l0.72 0c0.14,0 0.12,-0.13 0.02,-0.13l-0.75 0c-0.03,0 -0.05,0.01 -0.08,0.02zm-2.26 -2.7c0,0.05 0.02,0.07 0.07,0.07l0.95 0c0.09,0 0.07,-0.08 0.06,-0.11 -0.11,-0.02 -0.86,-0.01 -1.03,-0.01 -0.03,0 -0.05,0.03 -0.05,0.05zm0 -0.32c0,0.04 0.02,0.07 0.07,0.07l0.95 0c0.09,0 0.07,-0.08 0.06,-0.11 -0.11,-0.03 -0.86,-0.01 -1.03,-0.01 -0.03,0 -0.05,0.02 -0.05,0.05zm1.22 2.86l0.39 0 0 0.18c-0.07,0 -0.21,-0.01 -0.12,0.12 0.07,0 0.12,-0.02 0.12,0.04 0,0.03 -0.01,0.03 -0.03,0.03l-0.33 0c-0.05,0 -0.03,-0.07 -0.03,-0.19 0.05,0 0.2,0.02 0.13,-0.11 -0.07,-0.02 -0.05,-0.01 -0.13,-0.01l0 -0.06zm-0.12 0l0 0.35c0,0.09 0.06,0.15 0.14,0.15l0.35 0c0.08,0 0.14,-0.06 0.14,-0.15l0 -0.33c0,-0.1 -0.06,-0.16 -0.15,-0.16l-0.33 0c-0.08,0 -0.15,0.06 -0.15,0.14zm-1.43 -1.4l1.74 0 0 0.65 -1.74 0 0 -0.65zm-0.12 -0.05l0 0.77c0,0.03 0.02,0.05 0.05,0.05l1.88 0c0.02,0 0.02,0 0.05,-0.01 0.02,-0.1 0.01,-0.68 0.01,-0.83 0,-0.03 -0.03,-0.06 -0.05,-0.06l-1.87 0c-0.05,0 -0.07,0.03 -0.07,0.08zm1.39 2.53l0 -1.26c0,-0.04 0.02,-0.1 0.07,-0.1l2.23 0c0.03,0 0.05,0.03 0.05,0.05l0 1.34c0,0.05 -0.02,0.07 -0.07,0.07l-2.19 0c-0.06,0 -0.09,-0.04 -0.09,-0.1zm-0.12 -1.29l0 1.32c0,0.07 0.04,0.12 0.08,0.15 0.04,0.04 0.12,0.05 0.2,0.05l2.05 0c0.08,0 0.15,-0.01 0.2,-0.05 0.05,-0.04 0.08,-0.1 0.08,-0.18l0 -1.25c0,-0.15 -0.08,-0.24 -0.23,-0.24l-2.15 0c-0.12,0 -0.23,0.08 -0.23,0.2zm-0.9 -3.04c-0.03,-0.02 -0.24,-0.23 -0.24,-0.05l0 1.13c-0.13,0 -0.23,0 -0.34,0.11 -0.04,0.04 -0.11,0.14 -0.11,0.23l0 3.12c0,0.11 0.06,0.2 0.13,0.26 0.07,0.07 0.19,0.1 0.32,0.1l1.71 0c0.08,0 0.18,-0.01 0.24,-0.03 0.17,-0.08 0.19,-0.2 0.07,-0.2 -0.03,0 -0.09,0.1 -0.19,0.1l-1.93 0c-0.11,0 -0.23,-0.12 -0.23,-0.23l0 -3.1c0,-0.12 0.12,-0.24 0.27,-0.24l0.06 0 0 0.2c-0.12,0 -0.15,0.01 -0.12,0.11 0.02,0.01 0.04,0.02 0.08,0.02l1.83 0c0.09,0 0.11,-0.13 -0.02,-0.13l-0.05 0 0 -0.2c0.15,0 0.28,0.03 0.32,0.18 0.04,0.12 0.02,1.14 0.02,1.31 0.04,0.03 0.02,0.03 0.07,0.03 0.04,0 0.05,-0.03 0.05,-0.07l0 -1.19c0,-0.19 -0.17,-0.38 -0.36,-0.38l-0.1 0 0 -1.15c0,-0.07 -0.06,-0.07 -0.15,0 -0.03,0.03 -0.05,0.05 -0.09,0.07 -0.04,-0.02 -0.07,-0.05 -0.1,-0.08 -0.02,-0.02 -0.08,-0.06 -0.1,-0.06 -0.06,0 -0.15,0.12 -0.22,0.14 -0.04,-0.03 -0.16,-0.14 -0.2,-0.14 -0.05,0 -0.14,0.12 -0.21,0.14 -0.04,-0.03 -0.15,-0.14 -0.2,-0.14 -0.06,0.01 -0.15,0.12 -0.21,0.14z"/>
 </g>
</svg>
