<?xml version="1.0" encoding="UTF-8"?>
<!DOCTYPE svg PUBLIC "-//W3C//DTD SVG 1.1//EN" "http://www.w3.org/Graphics/SVG/1.1/DTD/svg11.dtd">
<!-- Creator: CorelDRAW -->
<svg xmlns="http://www.w3.org/2000/svg" xml:space="preserve" width="94px" height="133px" version="1.1" style="shape-rendering:geometricPrecision; text-rendering:geometricPrecision; image-rendering:optimizeQuality; fill-rule:evenodd; clip-rule:evenodd"
viewBox="0 0 2.63 3.75"
 xmlns:xlink="http://www.w3.org/1999/xlink"
 xmlns:xodm="http://www.corel.com/coreldraw/odm/2003">
 <defs>
  <style type="text/css">
   <![CDATA[
    .fil0 {fill:black}
   ]]>
  </style>
 </defs>
 <g id="Layer_x0020_1">
  <metadata id="CorelCorpID_0Corel-Layer"/>
  <path class="fil0" d="M0.09 3.57l0 -3.28c0,-0.1 0.06,-0.19 0.16,-0.19l1.02 0c0.17,0 0.24,0.05 0.24,0.25 0,1.02 -0.01,2.17 0,3.19 0,0.09 0,0.12 -0.09,0.12l-1.26 0c-0.05,0 -0.07,-0.04 -0.07,-0.09zm1.7 -1.34l0 -0.28 -0.09 0 0 -0.11 0.09 0 0 -0.18 -0.09 0 0 -0.11 0.09 0 0 -0.29 0.13 0 0.19 0.29 0.31 0 0 -0.29 0.13 0 0 0.29 0.08 0 0 0.11 -0.08 0 0 0.18 0.08 0 0 0.11 -0.08 0 0 0.28 -0.13 0 -0.19 -0.28 -0.32 0 0 0.28 -0.12 0zm0.39 -0.57l0.12 0.18 0.12 0 0 -0.18 -0.24 0zm0.2 0.29l0.04 0.07 0 -0.07 -0.04 0zm-0.22 -0.11l-0.12 -0.18 -0.13 0 0 0.18 0.25 0zm-0.2 -0.29l-0.05 -0.08 0 0.08 0.05 0zm-1.4 1.06l0.08 0c0.01,-0.05 0.02,-0.02 0,-0.08 -0.19,-0.05 -0.17,0.08 -0.08,0.08zm-0.06 -0.41c-0.02,0.1 0.01,0.08 0.23,0.08 0.05,0 0.05,-0.09 0,-0.09 -0.05,0 -0.19,-0.01 -0.23,0.01zm-0.01 0.19c0,0.08 0.09,0.06 0.21,0.06 0.08,0 0.09,-0.1 0.01,-0.1 -0.06,0 -0.22,-0.01 -0.22,0.04zm0 -0.32c0,0.02 0.01,0.01 0.01,0.03 0.08,0.02 0.25,0.01 0.34,0.01 0.05,0 0.05,-0.09 0,-0.09l-0.31 0c-0.02,0 -0.04,0.03 -0.04,0.05zm0.4 -0.91c0,0.02 0,0.05 0.04,0.05 0.1,0 0.32,0.01 0.4,-0.01 0,0 0.03,-0.08 -0.03,-0.08l-0.37 0c-0.02,0 -0.04,0.02 -0.04,0.04zm-0.4 0.74c0,0.02 0.03,0.05 0.05,0.05l0.4 0c0.08,0 0.06,-0.1 -0.01,-0.1l-0.37 0c-0.04,0 -0.07,0.02 -0.07,0.05zm0.53 0.16l0 0.51c0,0.05 0.05,0.04 0.07,0.04 0.02,-0.09 0.01,-0.44 0.01,-0.55 0,-0.05 -0.08,-0.05 -0.08,0zm-0.53 -0.32c0,0.03 0.04,0.04 0.07,0.04 0.11,0 0.45,0.01 0.53,-0.01 0.02,-0.05 0.02,-0.02 0,-0.08 -0.08,-0.02 -0.42,0 -0.53,0 -0.04,0 -0.07,0.01 -0.07,0.05zm0.2 1.21c0,-0.12 0.21,-0.15 0.21,0.01 0,0.13 -0.21,0.13 -0.21,-0.01zm-0.08 -0.03l0 0.05c0,0.23 0.39,0.25 0.39,-0.03 0,-0.17 -0.25,-0.27 -0.37,-0.09 -0.01,0.01 -0.02,0.04 -0.02,0.07zm0.46 -2.54l0.08 0 0 0.55 -0.08 0 0 -0.55zm-0.09 -0.05l0 0.66c0,0.06 0.23,0.04 0.26,0.03 0.02,-0.09 0.01,-0.55 0.01,-0.67 0,-0.08 -0.06,-0.05 -0.23,-0.05 -0.02,0 -0.04,0.01 -0.04,0.03zm-0.29 0.36c-0.03,0.05 -0.06,0.09 -0.1,0.14 -0.02,0.04 -0.07,0.12 -0.1,0.14 0,-0.22 0.08,-0.24 -0.13,-0.24l0.07 -0.35 0.15 0c-0.01,0.07 -0.05,0.15 -0.07,0.22 -0.04,0.11 0.07,0.09 0.18,0.09zm-0.42 0.09c0,0.06 0.06,0.05 0.14,0.05 0,0.12 -0.03,0.23 -0.03,0.35 0.06,0.04 0.06,0.06 0.16,-0.09l0.28 -0.43c0,-0.1 -0.14,-0.04 -0.2,-0.07 0,0 0,0 0,0l0.07 -0.25c0,-0.02 0,-0.01 0,-0.03 -0.08,-0.02 -0.21,-0.01 -0.3,-0.01 -0.05,0 -0.06,0.14 -0.08,0.22 -0.01,0.07 -0.04,0.21 -0.04,0.26zm0.14 2.39l0 -1.61c0,-0.06 0.02,-0.09 0.07,-0.09l0.66 0c0.02,0 0.05,0.03 0.05,0.05l0 1.68c0,0.09 -0.08,0.17 -0.17,0.17l-0.43 0c-0.11,0 -0.18,-0.09 -0.18,-0.2zm-0.09 -1.66l0 1.7c0,0.07 0.05,0.15 0.09,0.18 0.06,0.04 0.11,0.07 0.21,0.07l0.36 0c0.18,0 0.3,-0.11 0.3,-0.29l0 -1.63c0,-0.09 -0.07,-0.17 -0.16,-0.17l-0.63 0c-0.09,0 -0.17,0.07 -0.17,0.14zm0.95 -1.51c-0.24,0 -0.55,0 -0.79,0 -0.09,0 -0.16,0 -0.22,0 -0.13,0.01 -0.26,0.11 -0.26,0.25l0 3.35c0,0.08 0.07,0.15 0.15,0.15l1.32 0c0.05,0 0.1,-0.05 0.12,-0.09 0.03,-0.06 0.02,-0.53 0.02,-0.62l0 -2.7c-0.01,-0.25 -0.08,-0.34 -0.34,-0.34z"/>
 </g>
</svg>
