<?xml version="1.0" encoding="UTF-8"?>
<!DOCTYPE svg PUBLIC "-//W3C//DTD SVG 1.1//EN" "http://www.w3.org/Graphics/SVG/1.1/DTD/svg11.dtd">
<!-- Creator: CorelDRAW -->
<svg xmlns="http://www.w3.org/2000/svg" xml:space="preserve" width="115px" height="115px" version="1.1" style="shape-rendering:geometricPrecision; text-rendering:geometricPrecision; image-rendering:optimizeQuality; fill-rule:evenodd; clip-rule:evenodd"
viewBox="0 0 4.14 4.14"
 xmlns:xlink="http://www.w3.org/1999/xlink"
 xmlns:xodm="http://www.corel.com/coreldraw/odm/2003">
 <defs>
  <style type="text/css">
   <![CDATA[
    .fil0 {fill:black}
   ]]>
  </style>
 </defs>
 <g id="Layer_x0020_1">
  <metadata id="CorelCorpID_0Corel-Layer"/>
  <path class="fil0" d="M2.63 3.94c0,-0.21 0.05,-0.27 0.23,-0.35 0.24,-0.12 0.5,-0.14 0.75,-0.05 0.26,0.1 0.33,0.13 0.33,0.4 -0.13,0 -1.31,0 -1.31,0zm-0.92 -0.75c-0.04,0.03 -0.11,0.02 -0.14,-0.03 -0.03,-0.04 -0.02,-0.1 0.03,-0.13l0.37 -0.26 0 -0.46c0,-0.05 0.04,-0.1 0.1,-0.1 0.05,0 0.1,0.05 0.1,0.1l0 0.46 0.37 0.26c0.04,0.03 0.05,0.09 0.02,0.13 -0.03,0.05 -0.09,0.06 -0.13,0.03l-0.36 -0.26 -0.36 0.26zm-1.52 0.75c0,-0.21 0.05,-0.26 0.23,-0.35 0.24,-0.12 0.5,-0.14 0.75,-0.05 0.26,0.1 0.33,0.13 0.33,0.4 -0.13,0 -1.31,0 -1.31,0zm1.51 -0.05c0,0.11 -0.05,0.25 -0.19,0.25l-1.32 0c-0.13,0 -0.19,-0.13 -0.19,-0.27 0,-0.4 0.5,-0.58 0.83,-0.58 0.37,0 0.86,0.16 0.87,0.6zm-0.29 -2.2c0,-0.21 0.06,-0.27 0.23,-0.36 0.24,-0.12 0.5,-0.14 0.76,-0.04 0.25,0.1 0.32,0.12 0.32,0.4 -0.13,0 -1.31,0 -1.31,0zm1.51 -0.06c0,0.11 -0.05,0.25 -0.19,0.25l-1.32 0c-0.13,0 -0.19,-0.13 -0.19,-0.27 0,-0.39 0.5,-0.58 0.83,-0.58 0.37,0 0.86,0.16 0.87,0.6zm-0.85 -0.88c-0.15,0 -0.28,-0.12 -0.28,-0.26 0,-0.18 0.1,-0.3 0.29,-0.3 0.14,0 0.27,0.14 0.27,0.28 0,0.16 -0.13,0.28 -0.28,0.28zm-0.2 0.15c0.12,0.06 0.27,0.06 0.39,0.01 0.29,-0.14 0.38,-0.53 0.15,-0.77 -0.19,-0.18 -0.49,-0.19 -0.67,0 -0.24,0.23 -0.17,0.61 0.13,0.76zm-1.03 2.1c-0.15,0 -0.27,-0.12 -0.27,-0.25 0,-0.18 0.1,-0.3 0.29,-0.3 0.14,0 0.27,0.13 0.27,0.27 0,0.16 -0.13,0.28 -0.29,0.28zm-0.19 0.15c0.12,0.06 0.26,0.06 0.39,0.01 0.29,-0.13 0.38,-0.53 0.14,-0.76 -0.18,-0.19 -0.48,-0.2 -0.66,-0.01 -0.24,0.24 -0.18,0.62 0.13,0.76zm2.64 -0.14c-0.15,0 -0.28,-0.13 -0.28,-0.26 0,-0.18 0.11,-0.3 0.29,-0.3 0.15,0 0.27,0.13 0.27,0.27 0,0.16 -0.12,0.29 -0.28,0.29zm-0.2 0.14c0.12,0.06 0.27,0.06 0.39,0.01 0.3,-0.13 0.38,-0.53 0.15,-0.76 -0.19,-0.19 -0.48,-0.2 -0.67,-0.01 -0.23,0.24 -0.17,0.62 0.13,0.76zm1.05 0.73c0,0.12 -0.05,0.26 -0.19,0.26l-1.32 0c-0.13,0 -0.19,-0.13 -0.19,-0.27 0,-0.4 0.5,-0.58 0.83,-0.58 0.37,0 0.86,0.15 0.87,0.59z"/>
 </g>
</svg>
