<?xml version="1.0" encoding="UTF-8"?>
<!DOCTYPE svg PUBLIC "-//W3C//DTD SVG 1.1//EN" "http://www.w3.org/Graphics/SVG/1.1/DTD/svg11.dtd">
<!-- Creator: CorelDRAW -->
<svg xmlns="http://www.w3.org/2000/svg" xml:space="preserve" width="88px" height="122px" version="1.1" style="shape-rendering:geometricPrecision; text-rendering:geometricPrecision; image-rendering:optimizeQuality; fill-rule:evenodd; clip-rule:evenodd"
viewBox="0 0 2.41 3.37"
 xmlns:xlink="http://www.w3.org/1999/xlink"
 xmlns:xodm="http://www.corel.com/coreldraw/odm/2003">
 <defs>
  <style type="text/css">
   <![CDATA[
    .fil0 {fill:black}
   ]]>
  </style>
 </defs>
 <g id="Layer_x0020_1">
  <metadata id="CorelCorpID_0Corel-Layer"/>
  <path class="fil0" d="M1.9 3.18c0,-0.12 -0.01,-0.21 0.05,-0.27 0.06,-0.06 0.15,-0.05 0.26,-0.05l-0.31 0.32zm-1.3 -2c0,0.03 0.03,0.05 0.06,0.05l0.44 0c0.02,0 0.03,0 0.04,-0.01 0.05,-0.04 0.02,-0.1 -0.03,-0.1l-0.47 0c-0.03,0 -0.04,0.03 -0.04,0.06zm0.84 1.17l0 0.08c-0.05,0 -0.12,-0.01 -0.12,0.05 0,0.07 0.07,0.06 0.12,0.06 0,0.04 0,0.08 0.02,0.1 0.03,0.03 0.09,0.02 0.09,-0.04l0 -0.06c0.04,0 0.13,0.01 0.13,-0.06 0,-0.06 -0.08,-0.05 -0.13,-0.05 0,-0.05 0.01,-0.13 -0.05,-0.13 -0.03,0 -0.06,0.02 -0.06,0.05zm-0.84 -0.87c0,0.04 0.03,0.06 0.07,0.06l1.12 0c0.08,0 0.1,-0.11 -0.01,-0.11l-1.11 0c-0.04,0 -0.07,0.02 -0.07,0.05zm0 0.61c0,0.03 0.01,0.06 0.04,0.06l1.34 0c0.07,0 0.07,-0.11 -0.01,-0.11l-1.31 0c-0.03,0 -0.06,0.03 -0.06,0.05zm0 -0.3c0,0.03 0.01,0.06 0.04,0.06l1.34 0c0.07,0 0.07,-0.11 -0.01,-0.11l-1.31 0c-0.03,0 -0.06,0.02 -0.06,0.05zm0.55 0.85c0,0.04 0.03,0.08 0.03,0.12l-0.08 0c0.01,-0.02 0.02,-0.04 0.02,-0.06 0.01,-0.03 0.01,-0.05 0.03,-0.06zm-0.26 0.45c0,0.04 0.09,0.07 0.11,0 0.01,-0.02 0.02,-0.04 0.03,-0.07 0.01,-0.05 0.03,-0.09 0.04,-0.14l0.16 0c0,0.04 0.02,0.1 0.04,0.14 0.01,0.05 0.01,0.11 0.08,0.11 0.09,0 0.03,-0.13 0.01,-0.17 -0.01,-0.05 -0.16,-0.53 -0.17,-0.55 -0.02,-0.02 -0.08,-0.05 -0.1,0.04l-0.14 0.45c-0.01,0.02 -0.06,0.17 -0.06,0.19zm-0.19 -2.33c0,0.08 -0.01,0.13 0.04,0.18 0.1,0.1 0.29,0.06 0.29,-0.15l0 -0.16 1.13 0c0.08,0 0.14,0.07 0.14,0.15l0 1.48 0 0.49 -0.26 0c-0.12,0 -0.25,0.13 -0.25,0.25l0 0.25 -1.26 0c-0.09,0 -0.14,-0.09 -0.14,-0.19l0 -2.24c0,-0.1 0.05,-0.19 0.14,-0.19l0.38 0 0 0.2c0,0.06 -0.11,0.1 -0.1,-0.03 0,-0.13 -0.11,-0.1 -0.11,-0.04zm0.33 -0.42l0.85 0c0.07,0 0.14,0.07 0.14,0.15l0 0.02 -0.99 0 0 -0.17zm-0.75 0.45l0 2.18 -0.03 0c-0.07,0 -0.13,-0.07 -0.13,-0.14l0 -2.36c0,-0.05 0.06,-0.13 0.14,-0.13l0.65 0 0 0.17 -0.32 0c-0.14,0 -0.23,0.05 -0.28,0.16 -0.01,0.03 -0.03,0.07 -0.03,0.12zm0.46 -0.68c0.09,0 0.15,0.05 0.17,0.12l-0.33 0c0.03,-0.06 0.07,-0.12 0.16,-0.12zm-0.27 0.12c-0.13,0 -0.26,-0.01 -0.34,0.04 -0.08,0.05 -0.13,0.13 -0.13,0.25l0 2.29c0,0.16 0.12,0.28 0.28,0.28 0,0.17 0.12,0.28 0.31,0.28l1.24 0c0.05,0 0.07,-0.04 0.12,-0.09l0.39 -0.39c0.02,-0.01 0.06,-0.04 0.06,-0.05 0.02,-0.03 0.01,-0.61 0.01,-0.67l0 -1.41c0,-0.13 -0.13,-0.25 -0.28,-0.25 0,-0.11 -0.04,-0.2 -0.13,-0.24 -0.1,-0.05 -0.19,-0.04 -0.3,-0.04 -0.23,0 -0.45,0 -0.68,0 -0.01,-0.03 -0.01,-0.07 -0.06,-0.13 -0.08,-0.09 -0.2,-0.13 -0.32,-0.08 -0.05,0.02 -0.11,0.06 -0.14,0.12 -0.03,0.05 -0.02,0.06 -0.03,0.09z"/>
 </g>
</svg>
